<?xml version="1.0" encoding="UTF-8" standalone="no"?>
<!-- Created with Inkscape (http://www.inkscape.org/) -->

<svg
   xmlns:dc="http://purl.org/dc/elements/1.1/"
   xmlns:cc="http://creativecommons.org/ns#"
   xmlns:rdf="http://www.w3.org/1999/02/22-rdf-syntax-ns#"
   xmlns:svg="http://www.w3.org/2000/svg"
   xmlns="http://www.w3.org/2000/svg"
   xmlns:sodipodi="http://sodipodi.sourceforge.net/DTD/sodipodi-0.dtd"
   xmlns:inkscape="http://www.inkscape.org/namespaces/inkscape"
   width="16"
   height="16"
   id="svg4551"
   version="1.1"
   inkscape:version="0.48.4 r9939"
   sodipodi:docname="facebook-small-app-symbol.svg"
   inkscape:export-filename="C:\xampp\htdocs\meethub_frontend\designs\facebook-small-app-symbol.png"
   inkscape:export-xdpi="90"
   inkscape:export-ydpi="90">
  <defs
     id="defs4553" />
  <sodipodi:namedview
     id="base"
     pagecolor="#ffffff"
     bordercolor="#666666"
     borderopacity="1.0"
     inkscape:pageopacity="0.0"
     inkscape:pageshadow="2"
     inkscape:zoom="22.4"
     inkscape:cx="12.358643"
     inkscape:cy="6.4681144"
     inkscape:document-units="px"
     inkscape:current-layer="layer1"
     showgrid="false"
     inkscape:window-width="1920"
     inkscape:window-height="1017"
     inkscape:window-x="-8"
     inkscape:window-y="-8"
     inkscape:window-maximized="1" />
  <metadata
     id="metadata4556">
    <rdf:RDF>
      <cc:Work
         rdf:about="">
        <dc:format>image/svg+xml</dc:format>
        <dc:type
           rdf:resource="http://purl.org/dc/dcmitype/StillImage" />
        <dc:title></dc:title>
      </cc:Work>
    </rdf:RDF>
  </metadata>
  <g
     inkscape:label="Ebene 1"
     inkscape:groupmode="layer"
     id="layer1"
     transform="translate(0,-1036.3622)">
    <path
       inkscape:connector-curvature="0"
       style="fill:#de2c14;fill-opacity:1;stroke:none;display:inline"
       d="m 9.1613179,1036.8246 c -0.5539524,0.014 -0.9916807,0.4733 -0.978029,1.0273 l 0,0 c 0.0079,0.3045 0.1507669,0.5737 0.3699045,0.7521 l -1.0642156,4.0379 c -0.5503584,0.039 -1.0365477,0.301 -1.3709559,0.6949 l -2.9870957,-1.3726 c 0.00851,-0.068 0.011918,-0.1375 0.010188,-0.2082 -0.018695,-0.7581 -0.6389144,-1.3603 -1.3929079,-1.3608 -0.011964,0 -0.023836,2e-4 -0.035847,4e-4 -0.77014565,0.019 -1.37921885,0.6587 -1.36024855,1.4288 l 0,0 c 0.019956,0.7695 0.65931945,1.3771 1.42876875,1.3581 0.3837151,-0.01 0.7278071,-0.1729 0.973748,-0.4298 l 2.958189,1.3591 c -0.046456,0.1765 -0.069502,0.3624 -0.064777,0.5541 l 0,0 c 0.011123,0.4296 0.1586514,0.8233 0.3993486,1.1419 l -2.2536989,2.3902 c -0.2532878,-0.1474 -0.5495778,-0.2283 -0.8640109,-0.2206 -0.9052605,0.023 -1.6207759,0.7741 -1.5984686,1.6793 l 0,0 c 0.023462,0.9044 0.7748426,1.6192 1.6793039,1.5969 0.9052511,-0.022 1.6213133,-0.7746 1.5990013,-1.6799 -0.0071,-0.2887 -0.088435,-0.5582 -0.2253675,-0.7906 l 2.2933127,-2.4325 c 0.2965751,0.1628 0.6384844,0.2519 1.0010513,0.243 0.1967369,0 0.3861501,-0.038 0.5642298,-0.096 l 3.1819441,3.6541 c -0.04178,0.1146 -0.06367,0.2384 -0.06049,0.3677 l 4.67e-4,0 c 0.01435,0.5535 0.473814,0.9907 1.027285,0.977 0.553966,-0.014 0.992214,-0.4738 0.978566,-1.0278 -0.01365,-0.554 -0.47385,-0.9917 -1.027817,-0.978 -0.100726,0 -0.197494,0.02 -0.288541,0.05 l -3.0497176,-3.5026 c 0.2562603,-0.247 0.4457997,-0.5619 0.5401371,-0.9149 l 3.3843035,-0.1006 c 0.02267,0.065 0.05002,0.1285 0.08297,0.1911 0.359235,0.6814 1.203364,0.9427 1.884865,0.5835 0.681496,-0.3593 0.942738,-1.2029 0.583499,-1.8844 l -9.35e-4,0 c -0.247352,-0.4678 -0.7229,-0.737 -1.217319,-0.743 -0.224732,0 -0.453703,0.049 -0.666475,0.1611 -0.339517,0.179 -0.574778,0.4785 -0.680931,0.818 l -3.336118,0.099 c -0.051812,-0.2789 -0.1621098,-0.5367 -0.3169101,-0.7608 l 1.3923611,-1.2826 c 0.08178,0.03 0.170406,0.046 0.262846,0.043 0.391833,-0.01 0.701821,-0.3351 0.692165,-0.727 -0.0096,-0.3918 -0.335132,-0.7013 -0.726961,-0.6916 -0.391833,0.01 -0.701831,0.3351 -0.69217,0.727 l 0,4e-4 c 0.0023,0.098 0.02458,0.1908 0.06263,0.2746 l -1.3602535,1.2532 c -0.1735229,-0.1435 -0.3713861,-0.2586 -0.58671,-0.3367 l 1.0374544,-3.9383 c 0.4899282,-0.077 0.8588931,-0.5063 0.8463401,-1.0156 -0.01365,-0.5539 -0.4738464,-0.9916 -1.0278175,-0.978 z"
       id="path3757-17-1-2-6-8-1"
       inkscape:export-filename="C:\Users\Melanie\Desktop\path3757-17-1-2-6-8-1.png"
       inkscape:export-xdpi="10.080144"
       inkscape:export-ydpi="10.080144" />
  </g>
</svg>
