<?xml version="1.0" encoding="UTF-8" standalone="no"?>
<!-- Created with Inkscape (http://www.inkscape.org/) -->

<svg
   xmlns:dc="http://purl.org/dc/elements/1.1/"
   xmlns:cc="http://creativecommons.org/ns#"
   xmlns:rdf="http://www.w3.org/1999/02/22-rdf-syntax-ns#"
   xmlns:svg="http://www.w3.org/2000/svg"
   xmlns="http://www.w3.org/2000/svg"
   xmlns:sodipodi="http://sodipodi.sourceforge.net/DTD/sodipodi-0.dtd"
   xmlns:inkscape="http://www.inkscape.org/namespaces/inkscape"
   width="272"
   height="176"
   id="svg4630"
   version="1.1"
   inkscape:version="0.48.4 r9939"
   sodipodi:docname="facebook-large-mobile-banner.svg"
   inkscape:export-filename="C:\xampp\htdocs\meethub_frontend\designs\facebook-large-mobile-banner.png"
   inkscape:export-xdpi="90"
   inkscape:export-ydpi="90">
  <defs
     id="defs4632" />
  <sodipodi:namedview
     id="base"
     pagecolor="#ffffff"
     bordercolor="#666666"
     borderopacity="1.0"
     inkscape:pageopacity="0.0"
     inkscape:pageshadow="2"
     inkscape:zoom="0.98994949"
     inkscape:cx="157.57826"
     inkscape:cy="102.85503"
     inkscape:document-units="px"
     inkscape:current-layer="layer1"
     showgrid="false"
     inkscape:window-width="1335"
     inkscape:window-height="785"
     inkscape:window-x="273"
     inkscape:window-y="75"
     inkscape:window-maximized="0" />
  <metadata
     id="metadata4635">
    <rdf:RDF>
      <cc:Work
         rdf:about="">
        <dc:format>image/svg+xml</dc:format>
        <dc:type
           rdf:resource="http://purl.org/dc/dcmitype/StillImage" />
        <dc:title></dc:title>
      </cc:Work>
    </rdf:RDF>
  </metadata>
  <g
     inkscape:label="Ebene 1"
     inkscape:groupmode="layer"
     id="layer1"
     transform="translate(0,-876.36218)">
    <g
       transform="matrix(0.2361311,0,0,0.2361311,793.69889,468.53435)"
       style="display:inline"
       id="g4495">
      <text
         inkscape:export-ydpi="32.468349"
         inkscape:export-xdpi="32.468349"
         inkscape:export-filename="C:\Users\Melanie\Desktop\facebook-page-cover-image.png"
         transform="scale(0.999679,1.0003211)"
         sodipodi:linespacing="125%"
         id="text3235-9-9"
         y="2243.2393"
         x="-2736.0608"
         style="font-size:93.01165771px;font-style:normal;font-weight:normal;line-height:125%;letter-spacing:0px;word-spacing:0px;fill:#16769f;fill-opacity:0.94117647;stroke:none;display:inline;font-family:Sans"
         xml:space="preserve"><tspan
           style="font-style:normal;font-variant:normal;font-weight:normal;font-stretch:normal;fill:#16769f;fill-opacity:0.94117647;font-family:Ethnocentric Rg;-inkscape-font-specification:Ethnocentric Rg"
           y="2243.2393"
           x="-2736.0608"
           id="tspan3237-9-7"
           sodipodi:role="line">BETA</tspan></text>
      <text
         inkscape:export-ydpi="32.468349"
         inkscape:export-xdpi="32.468349"
         inkscape:export-filename="C:\Users\Melanie\Desktop\facebook-page-cover-image.png"
         transform="scale(0.999679,1.0003211)"
         sodipodi:linespacing="125%"
         id="text3185-8-6"
         y="2138.217"
         x="-3343.9902"
         style="font-size:39.98715973px;font-style:normal;font-variant:normal;font-weight:normal;font-stretch:normal;line-height:125%;letter-spacing:0px;word-spacing:0px;fill:#de2c14;fill-opacity:1;stroke:none;display:inline;font-family:Ethnocentric Rg;-inkscape-font-specification:Ethnocentric Rg"
         xml:space="preserve"><tspan
           style="font-size:143.95376587px;font-style:normal;font-variant:normal;font-weight:normal;font-stretch:normal;fill:#de2c14;fill-opacity:1;font-family:Ethnocentric Rg;-inkscape-font-specification:Ethnocentric Rg"
           y="2138.217"
           x="-3343.9902"
           id="tspan3187-18-9"
           sodipodi:role="line">MEETHUB</tspan></text>
      <path
         inkscape:export-ydpi="32.468349"
         inkscape:export-xdpi="32.468349"
         inkscape:export-filename="C:\Users\Melanie\Desktop\facebook-page-cover-image.png"
         id="path3757-17-1-2-6-8-1-7-2-3"
         d="m -2272.9018,1849.5509 c -7.6711,-3.621 -16.8203,-0.3383 -20.4439,7.3378 l -0.011,0.022 c -1.9871,4.2232 -1.8843,8.8894 -0.1137,12.8372 l -42.3314,47.9529 c -7.7944,-3.2532 -16.2485,-3.006 -23.532,0.087 l -31.418,-39.3199 c 0.5848,-0.8742 1.1089,-1.8003 1.5716,-2.7803 4.9588,-10.505 0.6171,-23.0103 -9.6928,-28.2002 -0.1636,-0.082 -0.326,-0.1638 -0.4943,-0.2392 -10.6649,-5.0343 -23.396,-0.4659 -28.4338,10.2056 l -0.015,0.029 c -5.0196,10.6687 -0.4536,23.3805 10.2018,28.4103 5.3136,2.5081 11.1444,2.6366 16.2762,0.8099 l 31.1145,38.9379 c -1.8492,2.0968 -3.4436,4.4832 -4.6971,7.1382 l -0.018,0.037 c -2.8024,5.956 -3.4924,12.3585 -2.3915,18.3739 l -47.2681,17.2235 c -2.451,-3.7581 -5.947,-6.9026 -10.3012,-8.958 -12.5362,-5.9174 -27.4941,-0.5466 -33.4156,11.9973 l -0.015,0.029 c -5.9004,12.5402 -0.5385,27.4881 11.9864,33.4002 12.5359,5.9173 27.505,0.5431 33.4265,-12.0009 1.8892,-4.0018 2.6301,-8.2486 2.3559,-12.3713 l 48.1008,-17.53 c 2.9365,4.2674 7.0004,7.8376 12.0211,10.2077 2.7246,1.2859 5.5433,2.1341 8.3768,2.5669 l 18.39,71.8874 c -1.3597,1.2816 -2.5112,2.826 -3.3571,4.6179 l 0,0.025 c -3.6106,7.674 -0.3327,16.8157 7.3317,20.4335 7.6714,3.6212 16.8314,0.3349 20.455,-7.3414 3.6238,-7.6761 0.3397,-16.8306 -7.3316,-20.4517 -1.395,-0.6581 -2.8383,-1.0853 -4.2892,-1.302 l -17.6231,-68.9049 c 5.2038,-1.6184 9.9622,-4.6257 13.681,-8.8091 l 46.9843,21.8862 c -0.1353,1.0417 -0.2003,2.1039 -0.1796,3.186 0.2263,11.7972 9.9758,21.1753 21.7686,20.9431 11.7928,-0.2324 21.1689,-9.9832 20.9427,-21.7804 l 0,-0.029 c -0.1658,-8.1032 -4.8186,-15.0574 -11.5404,-18.5378 -3.0552,-1.582 -6.5427,-2.4485 -10.2247,-2.376 -5.8751,0.1159 -11.1533,2.5982 -14.9404,6.5152 l -46.3143,-21.577 c 1.2092,-4.1725 1.4736,-8.4591 0.8975,-12.5902 l 27.8677,-7.9845 c 0.9113,0.975 2.0171,1.7961 3.2971,2.4003 5.4262,2.5612 11.9052,0.2371 14.4682,-5.1922 2.5632,-5.4295 0.2397,-11.9026 -5.1864,-14.4638 -5.4261,-2.5613 -11.905,-0.2373 -14.4682,5.1922 l 0,0.01 c -0.6381,1.3571 -0.9755,2.7795 -1.0322,4.1893 l -27.2261,7.8024 c -1.3862,-3.1574 -3.3013,-6.0925 -5.7093,-8.6417 l 41.2804,-46.7741 c 7.2295,2.3172 15.2309,-1.0257 18.5617,-8.0817 3.6238,-7.6759 0.3397,-16.8307 -7.3316,-20.4519 z"
         style="fill:#de2c14;fill-opacity:1;stroke:none;display:inline"
         inkscape:connector-curvature="0" />
      <path
         inkscape:export-ydpi="32.468349"
         inkscape:export-xdpi="32.468349"
         inkscape:export-filename="C:\Users\Melanie\Desktop\facebook-page-cover-image.png"
         id="path3757-17-1-2-6-8-1-7-2-6-5"
         d="m -2833.2624,2307.3583 c 5.7548,-2.2276 8.6121,-8.6957 6.3832,-14.4545 l -0.01,-0.017 c -1.2296,-3.1649 -3.7405,-5.4504 -6.7091,-6.4966 l -4.049,-46.3552 c 5.6228,-2.4769 9.7315,-7.0568 11.7533,-12.4465 l 36.4772,3.156 c 0.1675,0.7465 0.3928,1.4871 0.6774,2.2224 3.0504,7.8808 11.8185,11.8627 19.7233,9.031 0.1253,-0.045 0.2498,-0.09 0.3739,-0.1406 8.0009,-3.0968 11.9765,-12.0976 8.8779,-20.1035 l -0.01,-0.023 c -3.1062,-7.995 -12.0955,-11.9622 -20.0893,-8.8681 -3.9862,1.5431 -6.9775,4.5519 -8.5878,8.1725 l -36.1238,-3.1244 c -0.1779,-2.026 -0.6362,-4.0629 -1.4071,-6.0547 l -0.01,-0.028 c -1.734,-4.4634 -4.7625,-8.0373 -8.485,-10.4732 l 14.6226,-33.5493 c 3.2097,0.5926 6.62,0.3266 9.8865,-0.9377 9.4046,-3.6404 14.0738,-14.2172 10.4315,-23.6277 l -0.01,-0.023 c -3.651,-9.3976 -14.218,-14.0666 -23.6141,-10.4295 -9.4044,3.6403 -14.0774,14.2246 -10.435,23.6352 1.162,3.0022 3.0288,5.5222 5.3392,7.4448 l -14.8786,34.1417 c -3.7216,-0.5919 -7.641,-0.2401 -11.4076,1.2177 -2.0439,0.7913 -3.9042,1.8516 -5.5531,3.1281 l -47.11,-26.3521 c 0.01,-1.3592 -0.2303,-2.7405 -0.7507,-4.0849 l -0.013,-0.012 c -2.2343,-5.7508 -8.6961,-8.6068 -14.4459,-6.3811 -5.7551,2.2275 -8.6159,8.7032 -6.3868,14.462 2.2287,5.7589 8.7004,8.6181 14.4554,6.3904 1.0463,-0.4052 1.9951,-0.9518 2.8368,-1.6078 l 45.1536,25.2608 c -1.7562,3.5543 -2.5571,7.5701 -2.2168,11.6277 l -35.0936,13.7898 c -0.4812,-0.5936 -1.0084,-1.1604 -1.5892,-1.6921 -6.3313,-5.7959 -16.1626,-5.3595 -21.9532,0.9724 -5.7905,6.3321 -5.3524,16.163 0.9788,21.959 l 0.015,0.014 c 4.354,3.9756 10.3523,5.0102 15.5571,3.2124 2.3657,-0.817 4.571,-2.2207 6.379,-4.1977 2.8847,-3.1546 4.2229,-7.1812 4.0573,-11.1413 l 34.5947,-13.5917 c 1.5928,2.7295 3.7196,5.0181 6.1858,6.7859 l -9.7647,18.6915 c -0.9708,-0.01 -1.9581,0.1625 -2.9183,0.5342 -4.0706,1.5758 -6.0943,6.1559 -4.5179,10.2291 1.5765,4.0733 6.1533,6.0944 10.2239,4.5187 4.0707,-1.5757 6.0943,-6.1558 4.5178,-10.2291 l -0.01,-0.01 c -0.3953,-1.0168 -0.9759,-1.9078 -1.6905,-2.6445 l 9.539,-18.2621 c 2.3592,0.8525 4.8664,1.3148 7.4174,1.3239 l 3.9547,45.2102 c -4.8463,2.6485 -7.0963,8.5419 -5.0474,13.8354 2.2287,5.7587 8.7005,8.618 14.4555,6.3905 z"
         style="fill:#de2c14;fill-opacity:1;stroke:none;display:inline"
         inkscape:connector-curvature="0" />
      <path
         inkscape:export-ydpi="32.468349"
         inkscape:export-xdpi="32.468349"
         inkscape:export-filename="C:\Users\Melanie\Desktop\facebook-page-cover-image.png"
         id="path3757-17-1-2-6-8-1-7-2-6-6-7"
         d="m -3072.8925,1982.257 c 1.3538,-3.7499 -0.5881,-7.8849 -4.3405,-9.2397 l -0.012,0 c -2.0642,-0.7423 -4.2429,-0.4872 -6.0114,0.5165 l -24.3147,-17.678 c 1.1763,-3.7913 0.6854,-7.7359 -1.0849,-11.0064 l 17.0027,-16.4446 c 0.435,0.2347 0.8915,0.4389 1.3706,0.6119 5.1351,1.8539 10.7934,-0.7324 12.7642,-5.7865 0.031,-0.08 0.062,-0.1599 0.09,-0.2419 1.8823,-5.2133 -0.8202,-10.9672 -6.0367,-12.8506 l -0.015,-0.01 c -5.2144,-1.8751 -10.9593,0.8253 -12.8399,6.034 -0.9376,2.5974 -0.739,5.3313 0.3433,7.6512 l -16.8375,16.2858 c -1.0631,-0.7722 -2.2504,-1.4124 -3.5482,-1.8809 l -0.018,-0.01 c -2.9111,-1.047 -5.9373,-1.0857 -8.7029,-0.3036 l -10.1561,-21.3515 c 1.6496,-1.3135 2.9657,-3.0888 3.7342,-5.2172 2.2123,-6.128 -0.9644,-12.8882 -7.0962,-15.1021 l -0.015,-0.01 c -6.1291,-2.2042 -12.885,0.9679 -15.0954,7.0904 -2.2122,6.1279 0.9665,12.8931 7.0983,15.107 1.9562,0.7063 3.9762,0.8646 5.8929,0.5533 l 10.3364,21.7274 c -1.8663,1.5634 -3.3564,3.6233 -4.2426,6.0775 -0.4807,1.3318 -0.7524,2.6883 -0.8292,4.0332 l -32.8185,11.7944 c -0.6584,-0.5811 -1.4336,-1.0496 -2.3097,-1.3658 l -0.012,0 c -3.7507,-1.3488 -7.8824,0.5905 -9.235,4.3372 -1.3539,3.7499 0.5902,7.8898 4.3426,9.2446 3.7523,1.3549 7.8898,-0.5879 9.2436,-4.3379 0.246,-0.6818 0.3818,-1.3761 0.4188,-2.0645 l 31.4571,-11.3033 c 0.9882,2.363 2.6064,4.4559 4.7287,6.0102 l -8.1551,22.9542 c -0.4934,-0.017 -0.9932,-4e-4 -1.4986,0.057 -5.5097,0.6293 -9.4648,5.6071 -8.8329,11.1144 0.6321,5.5073 5.6104,9.4615 11.12,8.8322 l 0.013,0 c 3.7839,-0.4371 6.8312,-2.9227 8.1614,-6.2222 0.6046,-1.4996 0.8552,-3.1698 0.6579,-4.8893 -0.3149,-2.7437 -1.7105,-5.1031 -3.7113,-6.7012 l 8.0402,-22.627 c 2.0058,0.3806 4.0232,0.3141 5.9305,-0.1388 l 4.9724,12.6845 c -0.4164,0.469 -0.7509,1.0234 -0.9767,1.6491 -0.9575,2.6525 0.4174,5.5807 3.0714,6.539 2.654,0.9583 5.5796,-0.4161 6.5372,-3.0685 0.9575,-2.6524 -0.4174,-5.5807 -3.0714,-6.539 l -0.01,7e-4 c -0.6633,-0.2384 -1.3438,-0.333 -2.0058,-0.297 l -4.8589,-12.3924 c 1.4158,-0.7887 2.7041,-1.8149 3.79,-3.0547 l 23.7165,17.2386 c -0.7634,3.4854 1.1557,7.0807 4.605,8.3261 3.7522,1.3548 7.8897,-0.588 9.2436,-4.3379 z"
         style="fill:#16769f;fill-opacity:0.94117647;stroke:none;display:inline"
         inkscape:connector-curvature="0" />
      <path
         inkscape:export-ydpi="32.468349"
         inkscape:export-xdpi="32.468349"
         inkscape:export-filename="C:\Users\Melanie\Desktop\facebook-page-cover-image.png"
         id="path3757-17-1-2-6-8-1-7-2-6-6-0-6"
         d="m -2938.973,2276.2834 c 1.1807,-3.2705 -0.513,-6.8769 -3.7857,-8.0585 l -0.01,0 c -1.8004,-0.6474 -3.7005,-0.4249 -5.243,0.4505 l -21.2064,-15.4182 c 1.0259,-3.3066 0.5978,-6.7469 -0.9462,-9.5993 l 14.8292,-14.3424 c 0.3793,0.2047 0.7775,0.3827 1.1953,0.5336 4.4787,1.6169 9.4137,-0.6387 11.1325,-5.0467 0.027,-0.07 0.054,-0.1395 0.079,-0.211 1.6417,-4.5469 -0.7153,-9.5652 -5.265,-11.2079 l -0.013,-0.01 c -4.5478,-1.6354 -9.5583,0.7198 -11.1985,5.2627 -0.8177,2.2653 -0.6445,4.6497 0.2995,6.6731 l -14.6851,14.2039 c -0.9272,-0.6735 -1.9627,-1.2319 -3.0946,-1.6405 l -0.016,-0.01 c -2.539,-0.9132 -5.1783,-0.9469 -7.5904,-0.2648 l -8.8578,-18.622 c 1.4387,-1.1456 2.5866,-2.694 3.2569,-4.5503 1.9294,-5.3446 -0.8412,-11.2406 -6.1891,-13.1715 l -0.013,-0.01 c -5.3456,-1.9224 -11.2378,0.8441 -13.1656,6.184 -1.9295,5.3445 0.8429,11.2449 6.1908,13.1758 1.7062,0.616 3.4679,0.754 5.1396,0.4825 l 9.0151,18.9499 c -1.6278,1.3635 -2.9274,3.1601 -3.7003,5.3006 -0.4192,1.1615 -0.6562,2.3446 -0.7232,3.5176 l -28.6231,10.2866 c -0.5743,-0.5068 -1.2504,-0.9154 -2.0145,-1.1912 l -0.01,0 c -3.2713,-1.1763 -6.8748,0.5151 -8.0545,3.7828 -1.1808,3.2705 0.5148,6.8812 3.7875,8.0628 3.2726,1.1817 6.8812,-0.5127 8.0619,-3.7834 0.2146,-0.5946 0.333,-1.2001 0.3653,-1.8005 l 27.4358,-9.8584 c 0.8618,2.061 2.2732,3.8863 4.1242,5.2419 l -7.1126,20.0198 c -0.4303,-0.015 -0.8663,-3e-4 -1.307,0.05 -4.8054,0.5488 -8.2549,4.8903 -7.7038,9.6935 0.5513,4.8033 4.8932,8.252 9.6985,7.7032 l 0.011,0 c 3.3002,-0.3812 5.958,-2.5491 7.1181,-5.4268 0.5273,-1.3079 0.7459,-2.7646 0.5738,-4.2643 -0.2746,-2.3929 -1.4918,-4.4507 -3.2369,-5.8445 l 7.0124,-19.7345 c 1.7494,0.332 3.5089,0.274 5.1724,-0.121 l 4.3367,11.0629 c -0.3631,0.4091 -0.6549,0.8926 -0.8518,1.4383 -0.8351,2.3134 0.364,4.8673 2.6788,5.7031 2.3147,0.8358 4.8663,-0.3629 5.7015,-2.6762 0.8351,-2.3134 -0.3641,-4.8673 -2.6788,-5.7031 l -0.01,6e-4 c -0.5785,-0.2079 -1.172,-0.2904 -1.7494,-0.259 l -4.2378,-10.8083 c 1.2348,-0.6878 2.3585,-1.5829 3.3055,-2.6642 l 20.6847,15.0349 c -0.6658,3.0399 1.008,6.1756 4.0163,7.2618 3.2726,1.1816 6.8812,-0.5129 8.062,-3.7834 z"
         style="fill:#16769f;fill-opacity:0.94117647;stroke:none;display:inline"
         inkscape:connector-curvature="0" />
      <path
         inkscape:export-ydpi="32.468349"
         inkscape:export-xdpi="32.468349"
         inkscape:export-filename="C:\Users\Melanie\Desktop\facebook-page-cover-image.png"
         id="path3757-17-1-2-6-8-1-7-2-6-6-0-3-6"
         d="m -2497.7176,2002.536 c 1.1807,-3.2705 -0.513,-6.8769 -3.7857,-8.0585 l -0.01,0 c -1.8004,-0.6474 -3.7005,-0.4249 -5.243,0.4505 l -21.2064,-15.4182 c 1.0259,-3.3066 0.5978,-6.7469 -0.9462,-9.5993 l 14.8292,-14.3424 c 0.3793,0.2047 0.7775,0.3827 1.1953,0.5336 4.4787,1.6169 9.4137,-0.6387 11.1325,-5.0467 0.027,-0.07 0.054,-0.1395 0.079,-0.211 1.6417,-4.5469 -0.7153,-9.5652 -5.265,-11.2079 l -0.013,-0.01 c -4.5478,-1.6354 -9.5583,0.7198 -11.1985,5.2627 -0.8177,2.2653 -0.6445,4.6497 0.2995,6.6731 l -14.6851,14.2039 c -0.9272,-0.6735 -1.9627,-1.2319 -3.0946,-1.6405 l -0.016,-0.01 c -2.539,-0.9132 -5.1783,-0.9469 -7.5904,-0.2648 l -8.8578,-18.622 c 1.4387,-1.1456 2.5866,-2.694 3.2569,-4.5503 1.9294,-5.3446 -0.8412,-11.2406 -6.1891,-13.1715 l -0.013,-0.01 c -5.3456,-1.9224 -11.2378,0.8441 -13.1656,6.184 -1.9295,5.3445 0.8429,11.2449 6.1908,13.1758 1.7062,0.616 3.4679,0.754 5.1396,0.4825 l 9.0151,18.9499 c -1.6278,1.3635 -2.9274,3.1601 -3.7003,5.3006 -0.4192,1.1615 -0.6562,2.3446 -0.7232,3.5176 l -28.6231,10.2866 c -0.5743,-0.5068 -1.2504,-0.9154 -2.0145,-1.1912 l -0.01,0 c -3.2713,-1.1763 -6.8748,0.5151 -8.0545,3.7828 -1.1808,3.2705 0.5148,6.8812 3.7875,8.0628 3.2726,1.1817 6.8812,-0.5127 8.0619,-3.7834 0.2146,-0.5946 0.333,-1.2001 0.3653,-1.8005 l 27.4358,-9.8584 c 0.8618,2.061 2.2732,3.8863 4.1242,5.2419 l -7.1126,20.0198 c -0.4303,-0.015 -0.8663,-3e-4 -1.307,0.05 -4.8054,0.5488 -8.2549,4.8903 -7.7038,9.6935 0.5513,4.8033 4.8932,8.252 9.6985,7.7032 l 0.011,0 c 3.3002,-0.3812 5.958,-2.5491 7.1181,-5.4268 0.5273,-1.3079 0.7459,-2.7646 0.5738,-4.2643 -0.2746,-2.3929 -1.4918,-4.4507 -3.2369,-5.8445 l 7.0124,-19.7345 c 1.7494,0.332 3.5089,0.274 5.1724,-0.121 l 4.3367,11.0629 c -0.3631,0.4091 -0.6549,0.8926 -0.8518,1.4383 -0.8351,2.3134 0.364,4.8673 2.6788,5.7031 2.3147,0.8358 4.8663,-0.3629 5.7015,-2.6762 0.8351,-2.3134 -0.3641,-4.8673 -2.6788,-5.7031 l -0.01,6e-4 c -0.5785,-0.2079 -1.172,-0.2904 -1.7494,-0.259 l -4.2378,-10.8083 c 1.2348,-0.6878 2.3585,-1.5829 3.3055,-2.6642 l 20.6847,15.0349 c -0.6658,3.0399 1.008,6.1756 4.0163,7.2618 3.2726,1.1816 6.8812,-0.5129 8.062,-3.7834 z"
         style="fill:#16769f;fill-opacity:0.94117647;stroke:none;display:inline"
         inkscape:connector-curvature="0" />
    </g>
  </g>
</svg>
