<?xml version="1.0" encoding="UTF-8" standalone="no"?>
<!-- Created with Inkscape (http://www.inkscape.org/) -->

<svg
   xmlns:dc="http://purl.org/dc/elements/1.1/"
   xmlns:cc="http://creativecommons.org/ns#"
   xmlns:rdf="http://www.w3.org/1999/02/22-rdf-syntax-ns#"
   xmlns:svg="http://www.w3.org/2000/svg"
   xmlns="http://www.w3.org/2000/svg"
   xmlns:sodipodi="http://sodipodi.sourceforge.net/DTD/sodipodi-0.dtd"
   xmlns:inkscape="http://www.inkscape.org/namespaces/inkscape"
   width="1200"
   height="628"
   id="svg4630"
   version="1.1"
   inkscape:version="0.48.4 r9939"
   sodipodi:docname="facebook-marketing-banner.svg"
   inkscape:export-filename="C:\xampp\htdocs\meethub_frontend\designs\facebook-marketing-banner.png"
   inkscape:export-xdpi="90"
   inkscape:export-ydpi="90">
  <defs
     id="defs4632" />
  <sodipodi:namedview
     id="base"
     pagecolor="#ffffff"
     bordercolor="#666666"
     borderopacity="1.0"
     inkscape:pageopacity="0.0"
     inkscape:pageshadow="2"
     inkscape:zoom="0.49497475"
     inkscape:cx="246.51542"
     inkscape:cy="106.89054"
     inkscape:document-units="px"
     inkscape:current-layer="layer1"
     showgrid="false"
     inkscape:window-width="1335"
     inkscape:window-height="785"
     inkscape:window-x="273"
     inkscape:window-y="75"
     inkscape:window-maximized="0" />
  <metadata
     id="metadata4635">
    <rdf:RDF>
      <cc:Work
         rdf:about="">
        <dc:format>image/svg+xml</dc:format>
        <dc:type
           rdf:resource="http://purl.org/dc/dcmitype/StillImage" />
        <dc:title></dc:title>
      </cc:Work>
    </rdf:RDF>
  </metadata>
  <g
     inkscape:label="Ebene 1"
     inkscape:groupmode="layer"
     id="layer1"
     transform="translate(0,-424.36218)">
    <path
       inkscape:connector-curvature="0"
       style="fill:#de2c14;fill-opacity:1;stroke:none;display:inline"
       d="m 1151.1875,523.01888 c -8.206,-3.87345 -17.9931,-0.36189 -21.8693,7.84939 l -0.012,0.0235 c -2.1256,4.51764 -2.0156,9.50916 -0.1216,13.7322 l -45.2827,51.29615 c -8.3378,-3.48001 -17.3813,-3.21558 -25.1726,0.0931 l -33.6085,-42.06126 c 0.6256,-0.93514 1.1862,-1.92581 1.6812,-2.97414 5.3045,-11.2374 0.6601,-24.61456 -10.3686,-30.1663 -0.175,-0.0877 -0.3487,-0.17522 -0.5287,-0.25587 -11.4085,-5.38529 -25.0272,-0.49839 -30.41624,10.91712 l -0.016,0.031 c -5.36957,11.41251 -0.48523,25.01057 10.91306,30.39105 5.68402,2.68296 11.92142,2.82042 17.41092,0.86636 l 33.2838,41.65263 c -1.9781,2.24299 -3.6837,4.79576 -5.0245,7.63587 l -0.019,0.0396 c -2.9978,6.37125 -3.7359,13.22013 -2.5582,19.65492 l -50.56364,18.42431 c -2.62188,-4.02011 -6.36162,-7.38385 -11.01939,-9.58255 -13.41022,-6.32996 -29.41097,-0.58471 -35.74532,12.83375 l -0.016,0.031 c -6.31178,13.41449 -0.57605,29.40455 12.82208,35.72884 13.4099,6.32985 29.42263,0.58096 35.75698,-12.8376 2.02091,-4.2808 2.81347,-8.82368 2.52015,-13.23382 l 51.45438,-18.75218 c 3.1412,4.56492 7.4884,8.38404 12.8592,10.91938 2.9145,1.37555 5.9298,2.28289 8.9608,2.74586 l 19.6721,76.89935 c -1.4545,1.37095 -2.6862,3.02302 -3.5911,4.93985 l 0,0.0267 c -3.8623,8.20902 -0.3559,17.98808 7.8429,21.85811 8.2062,3.87367 18.0048,0.35825 21.8811,-7.85324 3.8764,-8.21127 0.3633,-18.00402 -7.8428,-21.87758 -1.4922,-0.70398 -3.0362,-1.16097 -4.5882,-1.39277 l -18.8518,-73.70891 c 5.5666,-1.73124 10.6568,-4.9482 14.6348,-9.42327 l 50.26,23.4121 c -0.1447,1.11432 -0.2142,2.25058 -0.1921,3.40812 0.2421,12.6197 10.6713,22.65163 23.2863,22.40324 12.615,-0.2486 22.6448,-10.67922 22.4028,-23.29891 l 0,-0.031 c -0.1773,-8.66815 -5.1545,-16.10719 -12.345,-19.83024 -3.2682,-1.6923 -6.9988,-2.61921 -10.9375,-2.54165 -6.2847,0.12398 -11.9309,2.77934 -15.9821,6.96943 l -49.5433,-23.08133 c 1.2935,-4.46341 1.5764,-9.04887 0.9601,-13.46798 l 29.8106,-8.54118 c 0.9749,1.04298 2.1578,1.92132 3.527,2.56765 5.8045,2.73976 12.7352,0.25363 15.4769,-5.5542 2.7419,-5.80804 0.2564,-12.73244 -5.548,-15.47221 -5.8044,-2.73987 -12.735,-0.25384 -15.4769,5.5542 l 0,0.0107 c -0.6826,1.45171 -1.0435,2.97328 -1.1042,4.48137 l -29.1242,8.34638 c -1.4829,-3.37753 -3.5315,-6.51726 -6.1074,-9.24419 l 44.1585,-50.03516 c 7.7335,2.47875 16.2927,-1.09722 19.8558,-8.64516 3.8764,-8.21105 0.3633,-18.00412 -7.8428,-21.87779 z"
       id="path3757-17-1-2-6-8-1-7-2-3"
       inkscape:export-filename="C:\Users\Melanie\Desktop\facebook-page-cover-image.png"
       inkscape:export-xdpi="32.468349"
       inkscape:export-ydpi="32.468349" />
    <path
       inkscape:connector-curvature="0"
       style="fill:#de2c14;fill-opacity:1;stroke:none;display:inline"
       d="m 697.22082,792.53104 c 6.15602,-2.3829 9.21253,-9.3019 6.82823,-15.46222 l -0.0107,-0.0182 c -1.31533,-3.38555 -4.00128,-5.8304 -7.17685,-6.94954 l -4.3313,-49.58705 c 6.01482,-2.64959 10.40998,-7.5488 12.57274,-13.31427 l 39.02036,3.37604 c 0.17918,0.79854 0.42019,1.59078 0.72463,2.37734 3.26307,8.43025 12.64248,12.68976 21.0984,9.66064 0.13403,-0.0481 0.26721,-0.0963 0.39997,-0.1504 8.55871,-3.31271 12.81149,-12.94104 9.49686,-21.50511 l -0.0107,-0.0246 c -3.32276,-8.55241 -12.93879,-12.7962 -21.48991,-9.48638 -4.26412,1.65068 -7.46397,4.86926 -9.18654,8.74228 l -38.64233,-3.34223 c -0.1903,-2.16725 -0.68055,-4.34616 -1.5052,-6.47683 l -0.0107,-0.03 c -1.85489,-4.77459 -5.09454,-8.59766 -9.07657,-11.20339 l 15.64208,-35.88833 c 3.43348,0.63391 7.08154,0.34937 10.57578,-1.00308 10.06029,-3.89421 15.05502,-15.20841 11.15878,-25.27501 l -0.0107,-0.0246 c -3.90554,-10.0528 -15.20927,-15.04732 -25.26046,-11.15664 -10.06007,3.8941 -15.05886,15.21633 -11.16252,25.28303 1.24301,3.21151 3.23997,5.90721 5.71145,7.96385 l -15.91593,36.52204 c -3.98107,-0.63317 -8.17373,-0.25684 -12.20293,1.30259 -2.1864,0.84647 -4.1764,1.9807 -5.94026,3.34619 l -50.39448,-28.18935 c 0.0107,-1.45396 -0.24636,-2.93157 -0.80304,-4.3697 l -0.0139,-0.0128 c -2.39007,-6.15175 -9.30238,-9.20686 -15.45306,-6.82599 -6.15634,2.3828 -9.21659,9.30998 -6.83208,15.47028 2.38408,6.16041 9.30699,9.21895 15.46322,6.83594 1.11925,-0.43345 2.1342,-1.01816 3.03458,-1.7199 l 48.30168,27.02197 c -1.87864,3.8021 -2.73537,8.09788 -2.37135,12.43838 l -37.5403,14.75121 c -0.51475,-0.63498 -1.07871,-1.2413 -1.7,-1.81007 -6.77272,-6.19999 -17.28945,-5.73316 -23.48377,1.0402 -6.19421,6.77357 -5.72556,17.28987 1.04705,23.48996 l 0.016,0.015 c 4.65756,4.25278 11.07406,5.35951 16.64173,3.43637 2.53064,-0.87396 4.88969,-2.37553 6.82374,-4.49036 3.08582,-3.37454 4.51732,-7.68187 4.34018,-11.91807 l 37.00662,-14.5393 c 1.70385,2.9198 3.97893,5.36796 6.61707,7.25901 L 658.7709,738.0846 c -1.03849,-0.0107 -2.09462,0.17382 -3.12176,0.57144 -4.3544,1.68566 -6.51919,6.58508 -4.83289,10.94227 1.68641,4.35728 6.58231,6.51929 10.93671,4.83374 4.3545,-1.68556 6.51919,-6.58498 4.83277,-10.94227 l -0.0107,-0.0107 c -0.42286,-1.08769 -1.04394,-2.04081 -1.80836,-2.82887 l 10.20405,-19.53532 c 2.52368,0.91193 5.20568,1.40646 7.93454,1.4162 l 4.23041,48.36223 c -5.18418,2.83315 -7.59104,9.13741 -5.3993,14.80001 2.38409,6.1602 9.3071,9.2188 15.46333,6.836 z"
       id="path3757-17-1-2-6-8-1-7-2-6-5"
       inkscape:export-filename="C:\Users\Melanie\Desktop\facebook-page-cover-image.png"
       inkscape:export-xdpi="32.468349"
       inkscape:export-ydpi="32.468349" />
    <path
       inkscape:connector-curvature="0"
       style="fill:#16769f;fill-opacity:0.94117647;stroke:none;display:inline"
       d="m 640.89405,610.42893 c 1.44818,-4.01134 -0.6291,-8.43463 -4.64312,-9.88389 l -0.0128,0 c -2.20811,-0.79405 -4.53871,-0.52116 -6.43051,0.55251 l -26.0099,-18.9105 c 1.25831,-4.05562 0.73318,-8.27524 -1.16054,-11.77376 l 18.18812,-17.5911 c 0.46532,0.25106 0.95365,0.4695 1.46615,0.65456 5.49312,1.98315 11.54591,-0.78347 13.65412,-6.18993 0.0332,-0.0856 0.0663,-0.17105 0.0963,-0.25877 2.01353,-5.57677 -0.87738,-11.73183 -6.45757,-13.74654 l -0.0161,-0.0107 c -5.57794,-2.00583 -11.72338,0.88284 -13.73509,6.45468 -1.00297,2.77849 -0.79052,5.703 0.36724,8.18464 l -18.01141,17.42124 c -1.13721,-0.82604 -2.40729,-1.51087 -3.79557,-2.01204 l -0.0193,-0.0107 c -3.11406,-1.11999 -6.35124,-1.16139 -9.30966,-0.32476 l -10.86416,-22.84011 c 1.76461,-1.40507 3.17247,-3.30414 3.99455,-5.58094 2.36654,-6.55524 -1.03164,-13.78675 -7.59094,-16.15501 l -0.016,-0.0107 c -6.55642,-2.35788 -13.78333,1.03538 -16.14784,7.58474 -2.36643,6.55513 1.03388,13.792 7.59319,16.16025 2.09258,0.75554 4.25342,0.92488 6.30375,0.59187 l 11.05704,23.24222 c -1.99641,1.6724 -3.5904,3.87592 -4.53839,6.50122 -0.51421,1.42466 -0.80485,2.87573 -0.88701,4.3144 l -35.10658,12.61669 c -0.70431,-0.62161 -1.53355,-1.12277 -2.47074,-1.46102 l -0.0128,0 c -4.0122,-1.44284 -8.43196,0.63167 -9.87886,4.63959 -1.44829,4.01134 0.63135,8.43987 4.64536,9.88913 4.01391,1.44936 8.43988,-0.62889 9.88806,-4.64034 0.26315,-0.72933 0.40842,-1.47204 0.448,-2.20843 l 33.65027,-12.09136 c 1.0571,2.52774 2.78812,4.76656 5.05838,6.42922 l -8.72367,24.55456 c -0.5278,-0.0182 -1.06244,-4.3e-4 -1.60308,0.061 -5.89383,0.67318 -10.12468,5.99802 -9.44872,11.88929 0.67617,5.89127 6.00155,10.12115 11.89528,9.44798 l 0.0139,0 c 4.04771,-0.46758 7.30747,-3.12647 8.73041,-6.65601 0.64675,-1.60415 0.91483,-3.3908 0.70377,-5.23018 -0.33685,-2.93499 -1.82976,-5.45889 -3.97005,-7.16841 l 8.60076,-24.20454 c 2.14564,0.40714 4.30369,0.336 6.34397,-0.14847 l 5.31907,13.56885 c -0.44543,0.5017 -0.80325,1.09475 -1.04479,1.76408 -1.02426,2.83743 0.4465,5.96978 3.28553,6.99489 2.83904,1.02511 5.96861,-0.44511 6.99297,-3.28243 1.02426,-2.83733 -0.4465,-5.96978 -3.28553,-6.9949 l -0.0107,7.5e-4 c -0.70955,-0.25502 -1.43749,-0.35621 -2.14564,-0.3177 l -5.19766,-13.2564 c 1.51451,-0.84368 2.89262,-1.94143 4.05423,-3.26767 l 25.37,18.44047 c -0.81662,3.7284 1.23628,7.57436 4.92606,8.90659 4.0138,1.44925 8.43977,-0.629 9.88806,-4.64034 z"
       id="path3757-17-1-2-6-8-1-7-2-6-6-7"
       inkscape:export-filename="C:\Users\Melanie\Desktop\facebook-page-cover-image.png"
       inkscape:export-xdpi="32.468349"
       inkscape:export-ydpi="32.468349" />
    <path
       inkscape:connector-curvature="0"
       style="fill:#16769f;fill-opacity:0.94117647;stroke:none;display:inline"
       d="m 533.63251,694.6399 c 1.26301,-3.49851 -0.54877,-7.35635 -4.04964,-8.62033 l -0.0107,0 c -1.92592,-0.69254 -3.95849,-0.45452 -5.60854,0.48191 l -22.68489,-16.49315 c 1.09742,-3.53713 0.63947,-7.21729 -1.01217,-10.26856 l 15.86308,-15.34234 c 0.40574,0.21897 0.83171,0.40938 1.27864,0.5708 4.79095,1.72963 10.07001,-0.68323 11.90865,-5.39855 0.0289,-0.0749 0.0578,-0.14923 0.0845,-0.22571 1.75616,-4.86391 -0.76517,-10.23208 -5.63207,-11.98931 l -0.0139,-0.0107 c -4.86487,-1.74942 -10.2247,0.76999 -11.97926,5.62961 -0.87471,2.42324 -0.68943,4.97388 0.32038,7.13835 l -15.70893,15.19419 c -0.99185,-0.72046 -2.09954,-1.31779 -3.31036,-1.75488 l -0.0171,-0.0107 c -2.71602,-0.97686 -5.53933,-1.01291 -8.1196,-0.28326 l -9.47536,-19.92031 c 1.53901,-1.22547 2.76694,-2.88183 3.48397,-4.86755 2.06392,-5.71722 -0.89985,-12.02428 -6.6206,-14.0898 l -0.0139,-0.0107 c -5.71829,-2.05643 -12.02129,0.90295 -14.0835,6.61514 -2.06402,5.71712 0.90167,12.02889 6.62242,14.09441 1.82516,0.65895 3.70968,0.80657 5.49793,0.51614 l 9.64363,20.27108 c -1.74129,1.45856 -3.1315,3.38042 -3.95828,5.67015 -0.44843,1.24248 -0.70195,2.50807 -0.77362,3.76285 l -30.61869,11.00377 c -0.61434,-0.54213 -1.33758,-0.97922 -2.15495,-1.27425 l -0.0107,0 c -3.49937,-1.25831 -7.3541,0.55101 -8.61605,4.04654 -1.26313,3.49851 0.55069,7.36095 4.05156,8.62493 3.50077,1.26409 7.36095,-0.54844 8.62397,-4.04718 0.22956,-0.63605 0.35622,-1.28377 0.39077,-1.92603 l 29.34861,-10.54572 c 0.92188,2.20469 2.43168,4.15725 4.41174,5.60736 l -7.60849,21.41557 c -0.4603,-0.016 -0.9267,-3.2e-4 -1.39812,0.0535 -5.14043,0.58706 -8.83043,5.23125 -8.24091,10.36932 0.58974,5.13819 5.23435,8.82731 10.37468,8.24031 l 0.0118,0 c 3.53029,-0.4078 6.37339,-2.72687 7.61437,-5.8052 0.56406,-1.39908 0.79791,-2.95734 0.61381,-4.5616 -0.29375,-2.55973 -1.59581,-4.761 -3.46258,-6.25198 l 7.5013,-21.11037 c 1.87137,0.35514 3.75354,0.2931 5.53302,-0.12944 l 4.63905,11.8342 c -0.38841,0.43762 -0.70056,0.95483 -0.91119,1.53858 -0.89332,2.47469 0.38938,5.20664 2.86557,6.10071 2.47608,0.89407 5.20557,-0.3882 6.099,-2.86278 0.89333,-2.47469 -0.38948,-5.20665 -2.86556,-6.10072 l -0.0107,6.5e-4 c -0.61883,-0.2224 -1.25371,-0.31065 -1.87137,-0.27706 l -4.53325,-11.56185 c 1.32089,-0.73575 2.52293,-1.69326 3.53596,-2.84995 l 22.12682,16.08313 c -0.71222,3.25184 1.07828,6.60616 4.29631,7.76809 3.50077,1.26398 7.36096,-0.54866 8.62408,-4.04718 z"
       id="path3757-17-1-2-6-8-1-7-2-6-6-0-6"
       inkscape:export-filename="C:\Users\Melanie\Desktop\facebook-page-cover-image.png"
       inkscape:export-xdpi="32.468349"
       inkscape:export-ydpi="32.468349" />
    <path
       inkscape:connector-curvature="0"
       style="fill:#16769f;fill-opacity:0.94117647;stroke:none;display:inline"
       d="m 910.69763,686.67001 c 1.26302,-3.49852 -0.54877,-7.35635 -4.04964,-8.62034 l -0.0107,0 c -1.92592,-0.69253 -3.95849,-0.45452 -5.60854,0.48191 l -22.68489,-16.49314 c 1.09742,-3.53714 0.63948,-7.21729 -1.01217,-10.26856 l 15.86308,-15.34235 c 0.40575,0.21898 0.83171,0.40939 1.27864,0.57081 4.79095,1.72963 10.07001,-0.68323 11.90865,-5.39856 0.0289,-0.0749 0.0578,-0.14922 0.0845,-0.22571 1.75615,-4.8639 -0.76517,-10.23208 -5.63208,-11.9893 l -0.0139,-0.0107 c -4.86487,-1.74942 -10.2247,0.76998 -11.97926,5.62961 -0.8747,2.42324 -0.68943,4.97387 0.32039,7.13834 l -15.70894,15.19419 c -0.99184,-0.72045 -2.09954,-1.31779 -3.31035,-1.75487 l -0.0171,-0.0107 c -2.71602,-0.97687 -5.53933,-1.01292 -8.1196,-0.28326 l -9.47536,-19.92032 c 1.53901,-1.22547 2.76694,-2.88182 3.48397,-4.86754 2.06392,-5.71722 -0.89985,-12.02429 -6.6206,-14.08981 l -0.0139,-0.0107 c -5.71829,-2.05643 -12.02129,0.90295 -14.08349,6.61515 -2.06403,5.71711 0.90166,12.02889 6.62242,14.09441 1.82515,0.65894 3.70967,0.80657 5.49792,0.51614 l 9.64363,20.27107 c -1.74129,1.45856 -3.13149,3.38042 -3.95828,5.67016 -0.44843,1.24248 -0.70195,2.50806 -0.77362,3.76284 l -30.61869,11.00378 c -0.61434,-0.54214 -1.33757,-0.97922 -2.15495,-1.27425 l -0.0107,0 c -3.49938,-1.25831 -7.35411,0.55101 -8.61606,4.04653 -1.26312,3.49852 0.55069,7.36096 4.05156,8.62494 3.50077,1.26408 7.36096,-0.54845 8.62397,-4.04718 0.22957,-0.63606 0.35622,-1.28377 0.39077,-1.92603 l 29.34861,-10.54572 c 0.92188,2.20469 2.43169,4.15725 4.41174,5.60736 l -7.60849,21.41557 c -0.4603,-0.0161 -0.9267,-3.2e-4 -1.39812,0.0535 -5.14043,0.58707 -8.83043,5.23125 -8.24091,10.36933 0.58974,5.13818 5.23435,8.82732 10.37468,8.24026 l 0.0118,0 c 3.53029,-0.40777 6.37339,-2.72682 7.61437,-5.80515 0.56407,-1.39909 0.79791,-2.95735 0.61381,-4.56161 -0.29375,-2.55973 -1.59581,-4.761 -3.46258,-6.25197 l 7.5013,-21.11038 c 1.87137,0.35515 3.75354,0.2931 5.53302,-0.12943 l 4.63905,11.83419 c -0.38841,0.43763 -0.70056,0.95484 -0.91118,1.53858 -0.89333,2.47469 0.38937,5.20665 2.86556,6.10072 2.47608,0.89407 5.20558,-0.3882 6.09901,-2.86278 0.89332,-2.47469 -0.38949,-5.20665 -2.86557,-6.10072 l -0.0107,6.4e-4 c -0.61883,-0.22239 -1.25371,-0.31065 -1.87136,-0.27706 l -4.53326,-11.56184 c 1.32089,-0.73576 2.52293,-1.69326 3.53596,-2.84995 l 22.12682,16.08312 c -0.71222,3.25184 1.07828,6.60616 4.29632,7.76809 3.50076,1.26398 7.36095,-0.54866 8.62407,-4.04718 z"
       id="path3757-17-1-2-6-8-1-7-2-6-6-0-3-6"
       inkscape:export-filename="C:\Users\Melanie\Desktop\facebook-page-cover-image.png"
       inkscape:export-xdpi="32.468349"
       inkscape:export-ydpi="32.468349" />
    <path
       inkscape:connector-curvature="0"
       style="fill:#de2c14;fill-opacity:1;stroke:none;display:inline"
       d="m 1096.8585,1033.4402 c 3.2816,0.5501 6.3862,-1.6634 6.9368,-4.9472 l -3e-4,-0.01 c 0.3005,-1.8059 -0.2352,-3.5567 -1.3241,-4.8585 l 10.8751,-22.6116 c 3.2891,0.3983 6.4545,-0.5953 8.8749,-2.53859 l 16.0483,11.49889 c -0.1277,0.3923 -0.2269,0.7977 -0.2972,1.217 -0.7535,4.494 2.2173,8.7529 6.6623,9.6143 0.071,0.014 0.1406,0.027 0.212,0.038 4.5625,0.7649 8.8824,-2.3154 9.648,-6.8807 l 0,-0.014 c 0.759,-4.5624 -2.3185,-8.8752 -6.8769,-9.6395 -2.2732,-0.381 -4.4881,0.1914 -6.231,1.4275 l -15.8932,-11.38709 c 0.4749,-0.9885 0.8228,-2.0592 1.0132,-3.195 l 0,-0.016 c 0.4238,-2.547 0,-5.0376 -1.0537,-7.1914 l 16.0112,-11.5359 c 1.3255,1.1579 2.9802,1.9727 4.8429,2.285 5.363,0.8991 10.4382,-2.7214 11.338,-8.0877 l 0,-0.014 c 0.8922,-5.3626 -2.7238,-10.435 -8.082,-11.3333 -5.3628,-0.899 -10.4418,2.724 -11.3416,8.0903 -0.2871,1.7119 -0.1146,3.3942 0.4279,4.9214 l -16.2928,11.7402 c -1.5631,-1.2983 -3.4776,-2.2135 -5.6254,-2.5736 -1.1656,-0.1954 -2.32,-0.2154 -3.4359,-0.077 l -14.5978,-25.1816 c 0.3787,-0.6274 0.6471,-1.3343 0.7756,-2.1009 l -0,-0.01 c 0.546,-3.2817 -1.665,-6.3839 -4.9438,-6.9335 -3.2818,-0.5503 -6.3901,1.6658 -6.9407,4.9498 -0.5507,3.2838 1.664,6.3903 4.9458,6.9404 0.5967,0.1 1.1871,0.1075 1.7579,0.035 l 13.9908,24.1372 c -1.7923,1.1652 -3.2685,2.8072 -4.227,4.7826 l -20.0687,-3.2595 c -0.06,-0.4077 -0.1484,-0.8156 -0.2715,-1.222 -1.3416,-4.4297 -6.0211,-6.932 -10.4485,-5.5886 -4.4274,1.3435 -6.9289,6.0232 -5.5872,10.4529 l 0,0.011 c 0.9254,3.0416 3.4226,5.1716 6.3309,5.7698 1.3219,0.2719 2.7308,0.2276 4.1132,-0.1918 2.2057,-0.6694 3.934,-2.1686 4.9467,-4.0507 l 19.7828,3.2142 c -0.012,1.704 0.3445,3.3505 1.0018,4.8488 l -9.6707,5.982 c -0.4461,-0.274 -0.9528,-0.4634 -1.5003,-0.5552 -2.3213,-0.3891 -4.5199,1.17819 -4.9094,3.50089 -0.3895,2.3227 1.177,4.5192 3.4983,4.9083 2.3213,0.3891 4.5198,-1.1782 4.9093,-3.5009 l -8e-4,-0.01 c 0.096,-0.5803 0.072,-1.1532 -0.056,-1.6915 l 9.4479,-5.84489 c 0.8596,1.0444 1.8951,1.9486 3.0757,2.6546 l -10.6039,22.05449 c -2.9761,-0.105 -5.6409,2.0092 -6.147,5.0277 -0.5508,3.2838 1.664,6.3903 4.9457,6.9405 z"
       id="path3757-17-1-2-6-8-1-7-2-6-5-1"
       inkscape:export-filename="C:\Users\Melanie\Desktop\facebook-page-cover-image.png"
       inkscape:export-xdpi="32.468349"
       inkscape:export-ydpi="32.468349" />
    <path
       inkscape:connector-curvature="0"
       style="fill:#de2c14;fill-opacity:1;stroke:none;display:inline"
       d="m 72.733736,501.54016 c 0.54357,-1.31987 -0.0856,-2.82967 -1.40632,-3.37367 l -0.004,-0.001 c -0.72659,-0.29819 -1.50992,-0.24141 -2.1584,0.0896 l -8.41746,-6.70815 c 0.48075,-1.33747 0.36761,-2.7562 -0.21389,-3.95408 l 6.34206,-5.61307 c 0.15185,0.0909 0.31194,0.17112 0.48057,0.24058 1.80746,0.74441 3.87235,-0.0912 4.65725,-1.86779 0.0124,-0.0282 0.0247,-0.0562 0.036,-0.0851 0.75576,-1.83497 -0.11983,-3.93589 -1.95593,-4.69216 l -0.005,-0.002 c -1.83549,-0.75325 -3.93316,0.12175 -4.68825,1.95511 -0.37651,0.91425 -0.34872,1.89527 0.002,2.74223 l -6.28044,5.55886 c -0.36804,-0.29304 -0.7826,-0.54079 -1.2394,-0.72894 l -0.006,-0.003 c -1.0247,-0.42054 -2.10654,-0.48229 -3.10816,-0.24633 l -3.29487,-7.79804 c 0.61084,-0.44373 1.1097,-1.05791 1.41826,-1.80707 0.88832,-2.15696 -0.14099,-4.62532 -2.29924,-5.51426 l -0.005,-0.002 c -2.15748,-0.88543 -4.62425,0.14226 -5.51176,2.29727 -0.8883,2.15691 0.14165,4.6271 2.29994,5.51604 0.68854,0.28359 1.40855,0.37218 2.09908,0.29118 l 3.35342,7.93536 c -0.69231,0.52967 -1.2579,1.24289 -1.61372,2.10672 -0.19304,0.4688 -0.31171,0.94967 -0.36044,1.42955 l -11.92569,3.69938 c -0.22648,-0.21808 -0.49619,-0.39811 -0.80453,-0.52509 l -0.004,10e-5 c -1.32027,-0.54182 -2.82886,0.0865 -3.37195,1.40522 -0.54364,1.3199 0.0862,2.83151 1.40701,3.37547 1.32073,0.54405 2.83144,-0.0854 3.37502,-1.40532 0.0988,-0.24 0.15835,-0.48619 0.18249,-0.73185 l 11.43094,-3.54526 c 0.31608,0.86086 0.86176,1.63508 1.59631,2.22463 l -3.28032,8.08153 c -0.17621,-0.0139 -0.35526,-0.0158 -0.53696,-0.003 -1.98072,0.13794 -3.47423,1.85585 -3.33536,3.83578 0.13893,1.97994 1.85706,3.4731 3.83778,3.3352 l 0.005,-1.2e-4 c 1.36041,-0.0965 2.48975,-0.93731 3.01774,-2.09647 0.24001,-0.52686 0.35608,-1.12029 0.31273,-1.73848 -0.0692,-0.98638 -0.5311,-1.85242 -1.22147,-2.45572 l 3.23404,-7.96632 c 0.71148,0.16791 1.43411,0.17602 2.12352,0.0442 l 1.57787,4.61583 c -0.1562,0.16135 -0.28481,0.35419 -0.37549,0.57444 -0.38447,0.93361 0.061,2.00278 0.99512,2.38757 0.93418,0.38478 2.0024,-0.0605 2.38689,-0.99411 0.3845,-0.93362 -0.061,-2.00279 -0.99514,-2.38757 l -0.003,8e-5 c -0.23348,-0.0958 -0.47539,-0.14041 -0.71279,-0.13799 l -1.54183,-4.50956 c 0.51888,-0.25972 0.99594,-0.60642 1.40398,-1.03268 l 8.21045,6.5415 c -0.32823,1.23461 0.30134,2.55101 1.5154,3.05104 1.3207,0.54402 2.83143,-0.0854 3.37506,-1.40533 z"
       id="path3757-17-1-2-6-8-1-7-2-6-5-7"
       inkscape:export-filename="C:\Users\Melanie\Desktop\facebook-page-cover-image.png"
       inkscape:export-xdpi="32.468349"
       inkscape:export-ydpi="32.468349" />
    <path
       inkscape:connector-curvature="0"
       style="fill:#de2c14;fill-opacity:1;stroke:none;display:inline"
       d="m 590.26543,967.63048 c 1.74719,1.06474 4.02551,0.51153 5.09102,-1.23684 l 0.002,-0.006 c 0.58466,-0.96209 0.6794,-2.08387 0.35572,-3.07604 l 11.37974,-10.41809 c 1.78617,0.97969 3.82019,1.1367 5.64622,0.58122 l 6.52935,10.2344 c -0.16261,0.19471 -0.31203,0.4034 -0.44807,0.62663 -1.45809,2.39265 -0.73671,5.50306 1.60324,7.01157 0.0371,0.0241 0.0741,0.0476 0.11243,0.07 2.42909,1.48034 5.59945,0.71032 7.08073,-1.72023 l 0.004,-0.007 c 1.47687,-2.43038 0.70699,-5.59602 -1.71996,-7.07502 -1.21027,-0.73748 -2.60546,-0.91747 -3.88299,-0.61066 l -6.46636,-10.13505 c 0.49718,-0.45558 0.94064,-0.98713 1.30917,-1.59184 l 0.005,-0.008 c 0.82453,-1.35679 1.15383,-2.87471 1.04369,-4.34562 l 11.77756,-2.92159 c 0.49168,0.96408 1.24974,1.8077 2.24146,2.41207 2.85533,1.73999 6.5803,0.83452 8.32145,-2.02251 l 0.004,-0.007 c 1.736,-2.85671 0.83246,-6.57905 -2.0203,-8.31747 -2.85527,-1.73995 -6.58297,-0.83396 -8.32414,2.02312 -0.55546,0.91146 -0.84186,1.91108 -0.88157,2.90689 l -11.98509,2.97376 c -0.59514,-1.09863 -1.4785,-2.05889 -2.62201,-2.75581 -0.62059,-0.37812 -1.27491,-0.65366 -1.94346,-0.82996 l -2.57149,-17.71204 c 0.35971,-0.2715 0.67459,-0.61352 0.92332,-1.0217 l 4e-4,-0.006 c 1.06232,-1.74817 0.51002,-4.0246 -1.23569,-5.08838 -1.74725,-1.06483 -4.0283,-0.51098 -5.09377,1.23743 -1.06557,1.74834 -0.51212,4.02801 1.23517,5.09276 0.31771,0.19354 0.65296,0.3329 0.99539,0.422 l 2.46384,16.97722 c -1.28952,0.25504 -2.50771,0.85455 -3.50667,1.76276 l -10.70886,-6.45134 c 0.0591,-0.24637 0.10186,-0.49945 0.12458,-0.75954 0.24756,-2.83525 -1.85086,-5.33394 -4.6852,-5.57999 -2.83436,-0.24598 -5.3326,1.8528 -5.58021,4.68804 l -5e-4,0.007 c -0.16756,1.94773 0.77045,3.7347 2.29362,4.74143 0.69227,0.4576 1.50655,0.75463 2.39151,0.83146 1.41204,0.12252 2.74149,-0.3378 3.75004,-1.18037 l 10.55607,6.36004 c -0.39679,0.9698 -0.56985,1.99114 -0.53739,2.99671 l -6.88814,1.20201 c -0.19314,-0.25752 -0.43784,-0.4824 -0.72936,-0.66005 -1.23591,-0.7531 -2.8493,-0.36147 -3.60297,0.87513 -0.75365,1.23663 -0.362,2.84863 0.87388,3.60175 1.2359,0.75313 2.84927,0.36148 3.60294,-0.87516 l 5.7e-4,-0.005 c 0.18778,-0.30917 0.30507,-0.6417 0.35472,-0.97836 l 6.72962,-1.17477 c 0.25169,0.79274 0.63592,1.54569 1.14822,2.21873 l -11.09751,10.16227 c -1.67465,-0.74076 -3.67925,-0.1437 -4.65866,1.46343 -1.06551,1.74827 -0.51206,4.028 1.23517,5.09279 z"
       id="path3757-17-1-2-6-8-1-7-2-6-5-4"
       inkscape:export-filename="C:\Users\Melanie\Desktop\facebook-page-cover-image.png"
       inkscape:export-xdpi="32.468349"
       inkscape:export-ydpi="32.468349" />
    <path
       inkscape:connector-curvature="0"
       style="fill:#16769f;fill-opacity:0.94117647;stroke:none;display:inline"
       d="m 290.30101,645.2943 c 1.26301,-3.4985 -0.54876,-7.3563 -4.04963,-8.6203 l -0.0107,0 c -1.92592,-0.6926 -3.95849,-0.4545 -5.60854,0.4819 l -22.68489,-16.4932 c 1.09742,-3.5371 0.63947,-7.2173 -1.01217,-10.2685 l 15.86308,-15.3424 c 0.40574,0.219 0.83171,0.4094 1.27864,0.5708 4.79095,1.7297 10.07001,-0.6832 11.90865,-5.3985 0.0289,-0.075 0.0578,-0.1492 0.0845,-0.2257 1.75616,-4.8639 -0.76517,-10.2321 -5.63207,-11.9893 l -0.0139,-0.011 c -4.86487,-1.7495 -10.2247,0.77 -11.97926,5.6296 -0.87471,2.4232 -0.68943,4.9739 0.32038,7.1383 l -15.70893,15.1945 c -0.99185,-0.7204 -2.09954,-1.3178 -3.31036,-1.7549 l -0.0171,-0.011 c -2.71602,-0.9768 -5.53933,-1.0129 -8.1196,-0.2832 l -9.47536,-19.9203 c 1.53901,-1.2255 2.76694,-2.8819 3.48397,-4.8676 2.06392,-5.7172 -0.89985,-12.0243 -6.6206,-14.0898 l -0.0139,-0.011 c -5.71829,-2.0564 -12.02129,0.903 -14.0835,6.6152 -2.06402,5.7171 0.90167,12.0288 6.62242,14.0944 1.82516,0.6589 3.70968,0.8065 5.49793,0.5161 l 9.64363,20.2711 c -1.74129,1.4585 -3.1315,3.3804 -3.95828,5.6701 -0.44843,1.2425 -0.70195,2.5081 -0.77362,3.7629 l -30.61869,11.0038 c -0.61434,-0.5422 -1.33758,-0.9793 -2.15495,-1.2743 l -0.0107,0 c -3.49937,-1.2583 -7.3541,0.551 -8.61605,4.0465 -1.26313,3.4986 0.55069,7.361 4.05156,8.625 3.50077,1.2641 7.36095,-0.5485 8.62397,-4.0472 0.22956,-0.6361 0.35622,-1.2838 0.39077,-1.926 l 29.34861,-10.5458 c 0.92188,2.2047 2.43168,4.1573 4.41174,5.6074 l -7.60849,21.4156 c -0.4603,-0.016 -0.9267,-3e-4 -1.39812,0.053 -5.14043,0.587 -8.83043,5.2312 -8.24091,10.3693 0.58974,5.1382 5.23435,8.8273 10.37468,8.2403 l 0.0118,0 c 3.53029,-0.4078 6.37339,-2.7269 7.61437,-5.8052 0.56406,-1.3991 0.79791,-2.9573 0.61381,-4.5616 -0.29375,-2.5597 -1.59581,-4.761 -3.46258,-6.252 l 7.5013,-21.1103 c 1.87137,0.3551 3.75354,0.2931 5.53302,-0.1295 l 4.63905,11.8342 c -0.38841,0.4376 -0.70056,0.9548 -0.91119,1.5386 -0.89332,2.4747 0.38938,5.2066 2.86557,6.1007 2.47608,0.8941 5.20557,-0.3882 6.099,-2.8628 0.89333,-2.4747 -0.38948,-5.2066 -2.86556,-6.1007 l -0.0107,7e-4 c -0.61883,-0.2224 -1.25371,-0.3107 -1.87137,-0.2771 l -4.53325,-11.5619 c 1.32089,-0.7357 2.52293,-1.6932 3.53596,-2.8499 l 22.12682,16.0831 c -0.71222,3.2519 1.07828,6.6062 4.29631,7.7681 3.50077,1.264 7.36096,-0.5486 8.62407,-4.0472 z"
       id="path3757-17-1-2-6-8-1-7-2-6-6-0-6-9"
       inkscape:export-filename="C:\Users\Melanie\Desktop\facebook-page-cover-image.png"
       inkscape:export-xdpi="32.468349"
       inkscape:export-ydpi="32.468349" />
    <path
       inkscape:connector-curvature="0"
       style="fill:#16769f;fill-opacity:0.94117647;stroke:none;display:inline"
       d="m 801.43821,1012.9898 c 1.26301,-3.4985 -0.54877,-7.3563 -4.04964,-8.6203 l -0.0107,0 c -1.92592,-0.6926 -3.95849,-0.4545 -5.60854,0.4819 l -22.68489,-16.49317 c 1.09742,-3.5371 0.63947,-7.2173 -1.01217,-10.2685 l 15.86308,-15.3424 c 0.40574,0.219 0.83171,0.4094 1.27864,0.5708 4.79095,1.7297 10.07001,-0.6832 11.90865,-5.3985 0.0289,-0.075 0.0578,-0.1492 0.0845,-0.2257 1.75616,-4.8639 -0.76517,-10.2321 -5.63207,-11.9893 l -0.0139,-0.011 c -4.86487,-1.7495 -10.2247,0.77 -11.97926,5.6296 -0.87471,2.4232 -0.68943,4.9739 0.32038,7.1383 l -15.70893,15.1942 c -0.99185,-0.7204 -2.09954,-1.3178 -3.31036,-1.7549 l -0.0171,-0.011 c -2.71602,-0.9768 -5.53933,-1.0129 -8.1196,-0.2832 l -9.47536,-19.9203 c 1.53901,-1.2255 2.76694,-2.8819 3.48397,-4.8676 2.06392,-5.7172 -0.89985,-12.0243 -6.6206,-14.0898 l -0.0139,-0.011 c -5.71829,-2.0564 -12.02129,0.903 -14.0835,6.6152 -2.06402,5.7171 0.90167,12.0288 6.62242,14.0944 1.82516,0.6589 3.70968,0.8065 5.49793,0.5161 l 9.64363,20.2711 c -1.74129,1.4585 -3.1315,3.3804 -3.95828,5.6701 -0.44843,1.2425 -0.70195,2.5081 -0.77362,3.7629 l -30.61869,11.0038 c -0.61434,-0.5422 -1.33758,-0.9793 -2.15495,-1.2743 l -0.0107,0 c -3.49937,-1.2583 -7.3541,0.551 -8.61605,4.0465 -1.26313,3.49857 0.55069,7.36097 4.05156,8.62497 3.50077,1.2641 7.36095,-0.5485 8.62397,-4.0472 0.22956,-0.6361 0.35622,-1.2838 0.39077,-1.926 l 29.34861,-10.54577 c 0.92188,2.2047 2.43168,4.1573 4.41174,5.6074 l -7.60849,21.41557 c -0.4603,-0.016 -0.9267,-3e-4 -1.39812,0.053 -5.14043,0.587 -8.83043,5.2312 -8.24091,10.3693 0.58974,5.1382 5.23435,8.8273 10.37468,8.2403 l 0.0118,0 c 3.53029,-0.4078 6.37339,-2.7269 7.61437,-5.8052 0.56406,-1.3991 0.79791,-2.9573 0.61381,-4.5616 -0.29375,-2.5597 -1.59581,-4.761 -3.46258,-6.252 l 7.5013,-21.11027 c 1.87137,0.3551 3.75354,0.2931 5.53302,-0.1295 l 4.63905,11.83417 c -0.38841,0.4376 -0.70056,0.9548 -0.91119,1.5386 -0.89332,2.4747 0.38938,5.2066 2.86557,6.1007 2.47608,0.8941 5.20557,-0.3882 6.099,-2.8628 0.89333,-2.4747 -0.38948,-5.2066 -2.86556,-6.1007 l -0.0107,7e-4 c -0.61883,-0.2224 -1.25371,-0.3107 -1.87137,-0.2771 l -4.53325,-11.56187 c 1.32089,-0.7357 2.52293,-1.6932 3.53596,-2.8499 l 22.12682,16.08307 c -0.71222,3.2519 1.07828,6.6062 4.29631,7.7681 3.50077,1.264 7.36096,-0.5486 8.62408,-4.0472 z"
       id="path3757-17-1-2-6-8-1-7-2-6-6-0-6-4"
       inkscape:export-filename="C:\Users\Melanie\Desktop\facebook-page-cover-image.png"
       inkscape:export-xdpi="32.468349"
       inkscape:export-ydpi="32.468349" />
    <path
       inkscape:connector-curvature="0"
       style="fill:#de2c14;fill-opacity:1;stroke:none;display:inline"
       d="m 447.18245,566.47401 c -2.75926,-3.62215 -7.9299,-4.32081 -11.55463,-1.55981 l -0.0101,0.0102 c -1.9911,1.52067 -3.09609,3.76917 -3.22879,6.08791 l -32.0264,12.37752 c -2.90889,-3.47746 -6.99786,-5.45037 -11.2328,-5.778 l -5.24456,-26.50258 c 0.49477,-0.27184 0.97351,-0.58343 1.43632,-0.93596 4.96032,-3.77853 5.98436,-10.8101 2.35593,-15.8323 -0.0576,-0.0795 -0.11502,-0.1586 -0.17634,-0.23618 -3.83604,-5.03592 -11.03127,-6.00777 -16.07037,-2.16944 l -0.0144,0.0114 c -5.02982,3.84149 -5.99807,11.02685 -2.16541,16.0583 1.91134,2.50896 4.65752,4.01209 7.55411,4.41088 l 5.19448,26.24562 c -1.39955,0.54163 -2.74932,1.28425 -4.00301,2.23919 l -0.0179,0.0125 c -2.80804,2.14453 -4.7201,5.02416 -5.68318,8.16231 l -26.7791,-3.48356 c -0.23828,-2.3966 -1.12628,-4.75929 -2.6924,-6.81529 -4.50924,-5.91939 -12.96381,-7.05962 -18.88698,-2.54782 l -0.0144,0.0115 c -5.91226,4.51532 -7.05435,12.96291 -2.54919,18.87695 4.50913,5.91926 12.96979,7.06065 18.89303,2.54875 1.88964,-1.43939 3.29296,-3.27945 4.18184,-5.3114 l 27.25194,3.54497 c 0.34376,2.75929 1.397,5.46524 3.20284,7.83602 0.98009,1.28643 2.11319,2.38756 3.35616,3.2945 l -9.01615,38.79675 c -0.96536,0.27205 -1.89526,0.72533 -2.74144,1.36992 l -0.006,0.0121 c -3.61795,2.76319 -4.31696,7.92912 -1.56008,11.54813 2.75925,3.62239 7.93603,4.32196 11.56071,1.56082 3.62483,-2.76088 4.32409,-7.9345 1.56472,-11.55678 -0.5018,-0.65851 -1.08384,-1.21892 -1.72145,-1.68097 l 8.6439,-37.18622 c 2.87951,0.51582 5.8902,0.25984 8.69647,-0.81359 l 16.97207,22.04625 c -0.32204,0.46283 -0.61567,0.95277 -0.87341,1.47349 -2.80962,5.67643 -0.48386,12.5554 5.19189,15.36114 5.67588,2.80561 12.55423,0.47874 15.36393,-5.19764 l 0.007,-0.0134 c 1.92492,-3.90156 1.42798,-8.36538 -0.91382,-11.68585 -1.06432,-1.50926 -2.51158,-2.78448 -4.28371,-3.66051 -2.82767,-1.39768 -5.95621,-1.52034 -8.72919,-0.59074 l -16.72934,-21.73326 c 1.60799,-1.68882 2.79396,-3.6657 3.54117,-5.77634 l 15.25142,3.08761 c 0.19239,0.69006 0.51679,1.35459 0.97719,1.95895 1.95182,2.56206 5.61329,3.05709 8.17708,1.1043 2.56384,-1.95287 3.05769,-5.61148 1.10594,-8.17356 -1.95178,-2.56215 -5.61322,-3.05711 -8.17706,-1.10423 l -0.005,0.009 c -0.63964,0.48874 -1.1521,1.08301 -1.52771,1.74062 l -14.90077,-3.0157 c 0.12038,-1.84706 -0.0662,-3.719 -0.58294,-5.52903 l 31.23417,-12.07584 c 2.87126,2.89188 7.51,3.27794 10.84187,0.73996 3.62469,-2.76085 4.32397,-7.93454 1.56475,-11.55685 z"
       id="path3757-17-1-2-6-8-1-7-2-6-5-8"
       inkscape:export-filename="C:\Users\Melanie\Desktop\facebook-page-cover-image.png"
       inkscape:export-xdpi="32.468349"
       inkscape:export-ydpi="32.468349" />
    <path
       inkscape:connector-curvature="0"
       style="fill:#de2c14;fill-opacity:1;stroke:none;display:inline"
       d="m 141.33862,627.32404 c 1.94163,-0.75158 2.90567,-2.93386 2.15365,-4.87686 l -0.003,-0.006 c -0.41486,-1.06782 -1.26203,-1.83893 -2.26361,-2.19191 l -1.36612,-15.63999 c 1.89711,-0.83569 3.28336,-2.38092 3.9655,-4.19938 l 12.3072,1.06482 c 0.0565,0.25186 0.13253,0.50174 0.22855,0.74982 1.02919,2.65894 3.9875,4.00241 6.65454,3.04701 0.0423,-0.0152 0.0843,-0.0304 0.12615,-0.0474 2.69945,-1.04485 4.0408,-4.08166 2.99535,-6.78281 l -0.003,-0.008 c -1.04802,-2.69747 -4.08096,-4.03598 -6.77802,-2.99205 -1.34492,0.52063 -2.35417,1.53579 -2.89748,2.75736 l -12.18796,-1.05416 c -0.06,-0.68356 -0.21465,-1.3708 -0.47475,-2.04282 l -0.003,-0.009 c -0.58505,-1.50593 -1.60685,-2.71174 -2.8628,-3.5336 l 4.93359,-11.31934 c 1.08293,0.19993 2.23355,0.11019 3.33565,-0.31638 3.17306,-1.22825 4.74842,-4.7968 3.51953,-7.97185 l -0.003,-0.008 c -1.23182,-3.1707 -4.79707,-4.746 -7.96726,-3.51886 -3.17299,1.22822 -4.74964,4.7993 -3.52071,7.97439 0.39205,1.01292 1.0219,1.86316 1.80141,2.51183 l -5.01995,11.51922 c -1.25565,-0.19971 -2.57803,-0.081 -3.84886,0.41084 -0.6896,0.26698 -1.31725,0.62472 -1.87358,1.0554 l -15.89465,-8.89105 c 0.003,-0.45858 -0.0777,-0.92463 -0.25328,-1.37822 l -0.004,-0.004 c -0.75384,-1.94029 -2.93402,-2.90388 -4.87396,-2.15294 -1.94174,0.75154 -2.90695,2.93641 -2.15487,4.87939 0.75195,1.94302 2.93547,2.9077 4.87716,2.15609 0.35302,-0.13671 0.67314,-0.32113 0.95712,-0.54247 l 15.23457,8.52286 c -0.59253,1.1992 -0.86275,2.55411 -0.74793,3.92312 l -11.84038,4.6526 c -0.16236,-0.20028 -0.34023,-0.39151 -0.53619,-0.57091 -2.13615,-1.9555 -5.45316,-1.80826 -7.40688,0.32809 -1.95368,2.13641 -1.80587,5.4533 0.33025,7.40884 l 0.005,0.005 c 1.46901,1.34134 3.49279,1.69041 5.24886,1.08385 0.79818,-0.27566 1.54223,-0.74926 2.15224,-1.41628 0.97328,-1.06435 1.42479,-2.4229 1.36891,-3.75902 l 11.67206,-4.58576 c 0.5374,0.92092 1.25497,1.69308 2.08705,2.28953 l -3.29455,6.3064 c -0.32754,-0.003 -0.66065,0.0548 -0.98462,0.18024 -1.3734,0.53166 -2.05618,2.07696 -1.52431,3.45124 0.5319,1.3743 2.07609,2.05621 3.44948,1.52458 1.37343,-0.53163 2.05619,-2.07693 1.52428,-3.45124 l -0.003,-0.003 c -0.13337,-0.34307 -0.32926,-0.64369 -0.57036,-0.89224 l 3.2184,-6.16153 c 0.79598,0.28762 1.6419,0.4436 2.50259,0.44667 l 1.33429,15.25367 c -1.63511,0.89359 -2.39425,2.88198 -1.70296,4.66799 0.75195,1.94296 2.9355,2.90765 4.87721,2.15611 z"
       id="path3757-17-1-2-6-8-1-7-2-6-5-7-8"
       inkscape:export-filename="C:\Users\Melanie\Desktop\facebook-page-cover-image.png"
       inkscape:export-xdpi="32.468349"
       inkscape:export-ydpi="32.468349" />
    <path
       inkscape:connector-curvature="0"
       style="fill:#de2c14;fill-opacity:1;stroke:none;display:inline"
       d="m 315.08486,744.50173 c 1.94163,-0.75158 2.90567,-2.93386 2.15365,-4.87686 l -0.003,-0.006 c -0.41486,-1.06782 -1.26203,-1.83893 -2.26361,-2.19191 l -1.36612,-15.63999 c 1.89711,-0.83569 3.28336,-2.38092 3.9655,-4.19938 l 12.30721,1.06482 c 0.0565,0.25186 0.13253,0.50174 0.22855,0.74982 1.02919,2.65894 3.9875,4.00241 6.65454,3.04701 0.0423,-0.0152 0.0843,-0.0304 0.12615,-0.0474 2.69945,-1.04485 4.0408,-4.08166 2.99535,-6.78281 l -0.003,-0.008 c -1.04802,-2.69747 -4.08096,-4.03598 -6.77802,-2.99205 -1.34492,0.52063 -2.35417,1.53579 -2.89748,2.75736 l -12.18797,-1.05416 c -0.06,-0.68356 -0.21465,-1.3708 -0.47475,-2.04282 l -0.003,-0.009 c -0.58505,-1.50593 -1.60685,-2.71174 -2.8628,-3.5336 l 4.93359,-11.31934 c 1.08293,0.19993 2.23355,0.11019 3.33566,-0.31638 3.17306,-1.22825 4.74842,-4.7968 3.51953,-7.97185 l -0.003,-0.008 c -1.23182,-3.1707 -4.79708,-4.746 -7.96727,-3.51886 -3.17299,1.22822 -4.74964,4.7993 -3.52071,7.97439 0.39205,1.01292 1.0219,1.86316 1.80141,2.51183 l -5.01995,11.51922 c -1.25565,-0.19971 -2.57803,-0.081 -3.84886,0.41084 -0.6896,0.26698 -1.31725,0.62472 -1.87358,1.0554 l -15.89465,-8.89105 c 0.003,-0.45858 -0.0777,-0.92463 -0.25328,-1.37822 l -0.004,-0.004 c -0.75384,-1.94029 -2.93402,-2.90388 -4.87396,-2.15294 -1.94174,0.75154 -2.90695,2.93641 -2.15487,4.87939 0.75195,1.94302 2.93547,2.9077 4.87716,2.15609 0.35302,-0.13671 0.67314,-0.32113 0.95712,-0.54247 l 15.23457,8.52286 c -0.59253,1.1992 -0.86275,2.55411 -0.74793,3.92312 l -11.84038,4.6526 c -0.16236,-0.20028 -0.34023,-0.39151 -0.53619,-0.57091 -2.13615,-1.9555 -5.45316,-1.80826 -7.40688,0.32809 -1.95368,2.13641 -1.80587,5.4533 0.33025,7.40884 l 0.005,0.005 c 1.46901,1.34134 3.49279,1.69041 5.24886,1.08385 0.79818,-0.27566 1.54223,-0.74926 2.15224,-1.41628 0.97328,-1.06435 1.42479,-2.4229 1.36891,-3.75902 l 11.67206,-4.58576 c 0.5374,0.92092 1.25497,1.69308 2.08705,2.28953 l -3.29455,6.3064 c -0.32754,-0.003 -0.66065,0.0548 -0.98462,0.18024 -1.3734,0.53166 -2.05618,2.07696 -1.52431,3.45124 0.5319,1.3743 2.07609,2.05621 3.44948,1.52458 1.37343,-0.53163 2.05619,-2.07693 1.52428,-3.45124 l -0.003,-0.003 c -0.13337,-0.34307 -0.32926,-0.64369 -0.57036,-0.89224 l 3.2184,-6.16153 c 0.79598,0.28762 1.6419,0.4436 2.50259,0.44667 l 1.33429,15.25367 c -1.63511,0.89359 -2.39425,2.88198 -1.70296,4.66799 0.75195,1.94296 2.9355,2.90765 4.87721,2.15611 z"
       id="path3757-17-1-2-6-8-1-7-2-6-5-7-2"
       inkscape:export-filename="C:\Users\Melanie\Desktop\facebook-page-cover-image.png"
       inkscape:export-xdpi="32.468349"
       inkscape:export-ydpi="32.468349" />
    <path
       inkscape:connector-curvature="0"
       style="fill:#de2c14;fill-opacity:1;stroke:none;display:inline"
       d="m 507.90674,547.46741 c 0.54357,-1.31987 -0.0856,-2.82967 -1.40632,-3.37367 l -0.004,-10e-4 c -0.72659,-0.29819 -1.50992,-0.24141 -2.1584,0.0896 l -8.41746,-6.70815 c 0.48075,-1.33747 0.36761,-2.7562 -0.21389,-3.95408 l 6.34206,-5.61307 c 0.15185,0.0909 0.31194,0.17112 0.48057,0.24058 1.80746,0.74441 3.87235,-0.0912 4.65725,-1.86779 0.0124,-0.0282 0.0247,-0.0562 0.036,-0.0851 0.75576,-1.83497 -0.11983,-3.93589 -1.95593,-4.69216 l -0.005,-0.002 c -1.83549,-0.75325 -3.93316,0.12175 -4.68825,1.95511 -0.37651,0.91425 -0.34872,1.89527 0.002,2.74223 l -6.28044,5.55886 c -0.36804,-0.29304 -0.7826,-0.54079 -1.2394,-0.72894 l -0.006,-0.003 c -1.0247,-0.42054 -2.10654,-0.48229 -3.10816,-0.24633 l -3.29487,-7.79804 c 0.61084,-0.44373 1.1097,-1.05791 1.41826,-1.80707 0.88832,-2.15696 -0.14099,-4.62532 -2.29924,-5.51426 l -0.005,-0.002 c -2.15748,-0.88543 -4.62425,0.14226 -5.51176,2.29727 -0.8883,2.15691 0.14165,4.6271 2.29994,5.51604 0.68854,0.28359 1.40855,0.37218 2.09908,0.29118 l 3.35342,7.93536 c -0.69231,0.52967 -1.2579,1.24289 -1.61372,2.10672 -0.19304,0.4688 -0.31171,0.94967 -0.36044,1.42955 l -11.92569,3.69938 c -0.22648,-0.21808 -0.49619,-0.39811 -0.80453,-0.52509 l -0.004,10e-5 c -1.32027,-0.54182 -2.82886,0.0865 -3.37195,1.40522 -0.54364,1.3199 0.0862,2.83151 1.40701,3.37547 1.32073,0.54405 2.83144,-0.0854 3.37502,-1.40532 0.0988,-0.24 0.15835,-0.48619 0.18249,-0.73185 l 11.43094,-3.54526 c 0.31608,0.86086 0.86176,1.63508 1.59631,2.22463 l -3.28032,8.08153 c -0.17621,-0.0139 -0.35526,-0.0158 -0.53696,-0.003 -1.98072,0.13794 -3.47423,1.85585 -3.33536,3.83578 0.13893,1.97994 1.85706,3.4731 3.83778,3.3352 l 0.005,-1.2e-4 c 1.36041,-0.0965 2.48975,-0.93731 3.01774,-2.09647 0.24001,-0.52686 0.35608,-1.12029 0.31273,-1.73848 -0.0692,-0.98638 -0.5311,-1.85242 -1.22147,-2.45572 l 3.23404,-7.96632 c 0.71148,0.16791 1.43411,0.17602 2.12352,0.0442 l 1.57787,4.61583 c -0.1562,0.16135 -0.28481,0.35419 -0.37549,0.57444 -0.38447,0.93361 0.061,2.00278 0.99512,2.38757 0.93418,0.38478 2.0024,-0.0605 2.38689,-0.99411 0.3845,-0.93362 -0.061,-2.00279 -0.99514,-2.38757 l -0.003,8e-5 c -0.23348,-0.0958 -0.47539,-0.14041 -0.71279,-0.13799 l -1.54183,-4.50956 c 0.51888,-0.25972 0.99594,-0.60642 1.40398,-1.03268 l 8.21045,6.5415 c -0.32823,1.23461 0.30134,2.55101 1.5154,3.05104 1.3207,0.54402 2.83143,-0.0854 3.37506,-1.40533 z"
       id="path3757-17-1-2-6-8-1-7-2-6-5-7-4"
       inkscape:export-filename="C:\Users\Melanie\Desktop\facebook-page-cover-image.png"
       inkscape:export-xdpi="32.468349"
       inkscape:export-ydpi="32.468349" />
    <path
       inkscape:connector-curvature="0"
       style="fill:#de2c14;fill-opacity:1;stroke:none;display:inline"
       d="m 542.25193,779.8025 c 0.54357,-1.31987 -0.0856,-2.82967 -1.40632,-3.37367 l -0.004,-10e-4 c -0.72659,-0.29819 -1.50992,-0.24141 -2.1584,0.0896 l -8.41746,-6.70815 c 0.48075,-1.33747 0.36761,-2.7562 -0.21389,-3.95408 l 6.34206,-5.61307 c 0.15185,0.0909 0.31194,0.17112 0.48057,0.24058 1.80746,0.74441 3.87235,-0.0912 4.65725,-1.86779 0.0124,-0.0282 0.0247,-0.0562 0.036,-0.0851 0.75576,-1.83497 -0.11983,-3.93589 -1.95593,-4.69216 l -0.005,-0.002 c -1.83549,-0.75325 -3.93316,0.12175 -4.68825,1.95511 -0.37651,0.91425 -0.34872,1.89527 0.002,2.74223 l -6.28044,5.55886 c -0.36804,-0.29304 -0.7826,-0.54079 -1.2394,-0.72894 l -0.006,-0.003 c -1.0247,-0.42054 -2.10654,-0.48229 -3.10816,-0.24633 l -3.29487,-7.79804 c 0.61084,-0.44373 1.1097,-1.05791 1.41826,-1.80707 0.88832,-2.15696 -0.14099,-4.62532 -2.29924,-5.51426 l -0.005,-0.002 c -2.15748,-0.88543 -4.62425,0.14226 -5.51176,2.29727 -0.8883,2.15691 0.14165,4.6271 2.29994,5.51604 0.68854,0.28359 1.40855,0.37218 2.09908,0.29118 l 3.35342,7.93536 c -0.69231,0.52967 -1.2579,1.24289 -1.61372,2.10672 -0.19304,0.4688 -0.31171,0.94967 -0.36044,1.42955 l -11.92569,3.69938 c -0.22648,-0.21808 -0.49619,-0.39811 -0.80453,-0.52509 l -0.004,1e-4 c -1.32027,-0.54182 -2.82886,0.0865 -3.37195,1.40522 -0.54364,1.3199 0.0862,2.83151 1.40701,3.37547 1.32073,0.54405 2.83144,-0.0854 3.37502,-1.40532 0.0988,-0.24 0.15835,-0.48619 0.18249,-0.73185 l 11.43094,-3.54526 c 0.31608,0.86086 0.86176,1.63508 1.59631,2.22463 l -3.28032,8.08153 c -0.17621,-0.0139 -0.35526,-0.0158 -0.53696,-0.003 -1.98072,0.13794 -3.47423,1.85585 -3.33536,3.83578 0.13893,1.97994 1.85706,3.4731 3.83778,3.3352 l 0.005,-1.2e-4 c 1.36041,-0.0965 2.48975,-0.93731 3.01774,-2.09647 0.24001,-0.52686 0.35608,-1.12029 0.31273,-1.73848 -0.0692,-0.98638 -0.5311,-1.85242 -1.22147,-2.45572 l 3.23404,-7.96632 c 0.71148,0.16791 1.43411,0.17602 2.12352,0.0442 l 1.57787,4.61583 c -0.1562,0.16135 -0.28481,0.35419 -0.37549,0.57444 -0.38447,0.93361 0.061,2.00278 0.99512,2.38757 0.93418,0.38478 2.0024,-0.0605 2.38689,-0.99411 0.3845,-0.93362 -0.061,-2.00279 -0.99514,-2.38757 l -0.003,8e-5 c -0.23348,-0.0958 -0.47539,-0.14041 -0.71279,-0.13799 l -1.54183,-4.50956 c 0.51888,-0.25972 0.99594,-0.60642 1.40398,-1.03268 l 8.21045,6.5415 c -0.32823,1.23461 0.30134,2.55101 1.5154,3.05104 1.3207,0.54402 2.83143,-0.0854 3.37506,-1.40533 z"
       id="path3757-17-1-2-6-8-1-7-2-6-5-7-5"
       inkscape:export-filename="C:\Users\Melanie\Desktop\facebook-page-cover-image.png"
       inkscape:export-xdpi="32.468349"
       inkscape:export-ydpi="32.468349" />
    <path
       inkscape:connector-curvature="0"
       style="fill:#de2c14;fill-opacity:1;stroke:none;display:inline"
       d="m 824.2017,797.02966 c 1.9417,-0.75158 2.9057,-2.93386 2.1537,-4.87686 l 0,-0.006 c -0.4149,-1.06782 -1.262,-1.83893 -2.2636,-2.19191 l -1.3661,-15.63999 c 1.8971,-0.83569 3.2833,-2.38092 3.9655,-4.19938 l 12.3072,1.06482 c 0.057,0.25186 0.1325,0.50174 0.2285,0.74982 1.0292,2.65894 3.9875,4.00241 6.6546,3.04701 0.042,-0.0152 0.084,-0.0304 0.1261,-0.0474 2.6995,-1.04485 4.0408,-4.08166 2.9954,-6.78281 l 0,-0.008 c -1.0481,-2.69747 -4.081,-4.03598 -6.7781,-2.99205 -1.3449,0.52063 -2.3541,1.53579 -2.8974,2.75736 l -12.188,-1.05416 c -0.06,-0.68356 -0.2147,-1.3708 -0.4748,-2.04282 l 0,-0.009 c -0.585,-1.50593 -1.6068,-2.71174 -2.8628,-3.5336 l 4.9336,-11.31934 c 1.083,0.19993 2.2336,0.11019 3.3357,-0.31638 3.1731,-1.22825 4.7484,-4.7968 3.5195,-7.97185 l 0,-0.008 c -1.2318,-3.1707 -4.7971,-4.746 -7.9672,-3.51886 -3.173,1.22822 -4.7497,4.7993 -3.5208,7.97439 0.3921,1.01292 1.0219,1.86316 1.8015,2.51183 l -5.02,11.51922 c -1.2556,-0.19971 -2.578,-0.081 -3.8489,0.41084 -0.6896,0.26698 -1.3172,0.62472 -1.8735,1.0554 l -15.8947,-8.89105 c 0,-0.45858 -0.078,-0.92463 -0.2533,-1.37822 l 0,-0.004 c -0.7538,-1.94029 -2.934,-2.90388 -4.8739,-2.15294 -1.9418,0.75154 -2.907,2.93641 -2.1549,4.87939 0.752,1.94302 2.9355,2.9077 4.8772,2.15609 0.353,-0.13671 0.6731,-0.32113 0.9571,-0.54247 l 15.2346,8.52286 c -0.5926,1.1992 -0.8628,2.55411 -0.748,3.92312 l -11.8404,4.6526 c -0.1623,-0.20028 -0.3402,-0.39151 -0.5361,-0.57091 -2.1362,-1.9555 -5.4532,-1.80826 -7.4069,0.32809 -1.9537,2.13641 -1.8059,5.4533 0.3302,7.40884 l 0.01,0.005 c 1.469,1.34134 3.4928,1.69041 5.2489,1.08385 0.7982,-0.27566 1.5422,-0.74926 2.1522,-1.41628 0.9733,-1.06435 1.4248,-2.4229 1.3689,-3.75902 l 11.6721,-4.58576 c 0.5374,0.92092 1.255,1.69308 2.087,2.28953 l -3.2945,6.3064 c -0.3275,-0.003 -0.6607,0.0548 -0.9846,0.18024 -1.3734,0.53166 -2.0562,2.07696 -1.5243,3.45124 0.5319,1.3743 2.0761,2.05621 3.4494,1.52458 1.3735,-0.53163 2.0562,-2.07693 1.5243,-3.45124 l 0,-0.003 c -0.1333,-0.34307 -0.3292,-0.64369 -0.5703,-0.89224 l 3.2184,-6.16153 c 0.7959,0.28762 1.6419,0.4436 2.5026,0.44667 l 1.3342,15.25367 c -1.6351,0.89359 -2.3942,2.88198 -1.7029,4.66799 0.7519,1.94296 2.9355,2.90765 4.8772,2.15611 z"
       id="path3757-17-1-2-6-8-1-7-2-6-5-7-2-5"
       inkscape:export-filename="C:\Users\Melanie\Desktop\facebook-page-cover-image.png"
       inkscape:export-xdpi="32.468349"
       inkscape:export-ydpi="32.468349" />
    <path
       inkscape:connector-curvature="0"
       style="fill:#de2c14;fill-opacity:1;stroke:none;display:inline"
       d="m 959.56218,817.23271 c 1.9416,-0.75158 2.9057,-2.93386 2.1536,-4.87686 l 0,-0.006 c -0.4148,-1.06782 -1.262,-1.83893 -2.2636,-2.19191 l -1.3661,-15.63999 c 1.8971,-0.83569 3.2834,-2.38092 3.9655,-4.19938 l 12.3072,1.06482 c 0.057,0.25186 0.1326,0.50174 0.2286,0.74982 1.0292,2.65894 3.9875,4.00241 6.6545,3.04701 0.042,-0.0152 0.084,-0.0304 0.1262,-0.0474 2.6994,-1.04485 4.0408,-4.08166 2.9953,-6.78281 l 0,-0.008 c -1.048,-2.69747 -4.0809,-4.03598 -6.778,-2.99205 -1.3449,0.52063 -2.3542,1.53579 -2.8975,2.75736 l -12.188,-1.05416 c -0.06,-0.68356 -0.2146,-1.3708 -0.4747,-2.04282 l 0,-0.009 c -0.5851,-1.50593 -1.6069,-2.71174 -2.8628,-3.5336 l 4.9336,-11.31934 c 1.0829,0.19993 2.2335,0.11019 3.3356,-0.31638 3.1731,-1.22825 4.7485,-4.7968 3.5196,-7.97185 l 0,-0.008 c -1.2318,-3.1707 -4.7971,-4.746 -7.9673,-3.51886 -3.173,1.22822 -4.7496,4.7993 -3.5207,7.97439 0.392,1.01292 1.0219,1.86316 1.8014,2.51183 l -5.0199,11.51922 c -1.2557,-0.19971 -2.5781,-0.081 -3.8489,0.41084 -0.6896,0.26698 -1.31725,0.62472 -1.87358,1.0554 l -15.89465,-8.89105 c 0.003,-0.45858 -0.0777,-0.92463 -0.25328,-1.37822 l -0.004,-0.004 c -0.75384,-1.94029 -2.93402,-2.90388 -4.87396,-2.15294 -1.94174,0.75154 -2.90695,2.93641 -2.15487,4.87939 0.75195,1.94302 2.93547,2.9077 4.87716,2.15609 0.35302,-0.13671 0.67314,-0.32113 0.95712,-0.54247 l 15.23457,8.52286 c -0.59253,1.1992 -0.86275,2.55411 -0.74793,3.92312 l -11.84038,4.6526 c -0.16236,-0.20028 -0.34023,-0.39151 -0.53619,-0.57091 -2.13615,-1.9555 -5.45316,-1.80826 -7.40688,0.32809 -1.95368,2.13641 -1.80587,5.4533 0.33025,7.40884 l 0.005,0.005 c 1.46901,1.34134 3.49279,1.69041 5.24886,1.08385 0.79818,-0.27566 1.54223,-0.74926 2.15224,-1.41628 0.97328,-1.06435 1.42479,-2.4229 1.36891,-3.75902 l 11.67206,-4.58576 c 0.5374,0.92092 1.25497,1.69308 2.08705,2.28953 l -3.29455,6.3064 c -0.32754,-0.003 -0.66065,0.0548 -0.98462,0.18024 -1.3734,0.53166 -2.05618,2.07696 -1.52431,3.45124 0.5319,1.3743 2.07609,2.05621 3.44948,1.52458 1.37343,-0.53163 2.05619,-2.07693 1.52428,-3.45124 l -0.003,-0.003 c -0.13337,-0.34307 -0.32926,-0.64369 -0.57036,-0.89224 l 3.21838,-6.16153 c 0.796,0.28762 1.6419,0.4436 2.5026,0.44667 l 1.3343,15.25367 c -1.6351,0.89359 -2.3942,2.88198 -1.703,4.66799 0.752,1.94296 2.9355,2.90765 4.8772,2.15611 z"
       id="path3757-17-1-2-6-8-1-7-2-6-5-7-2-1"
       inkscape:export-filename="C:\Users\Melanie\Desktop\facebook-page-cover-image.png"
       inkscape:export-xdpi="32.468349"
       inkscape:export-ydpi="32.468349" />
    <path
       inkscape:connector-curvature="0"
       style="fill:#de2c14;fill-opacity:1;stroke:none;display:inline"
       d="m 893.81201,760.79182 c -8.206,-3.87345 -17.9931,-0.36189 -21.8693,7.84939 l -0.012,0.0235 c -2.1256,4.51764 -2.0156,9.50916 -0.1216,13.7322 l -45.2827,51.29615 c -8.3378,-3.48001 -17.3813,-3.21558 -25.1726,0.0931 l -33.6085,-42.06126 c 0.6256,-0.93514 1.1862,-1.92581 1.6812,-2.97414 5.3045,-11.2374 0.6601,-24.61456 -10.3686,-30.1663 -0.175,-0.0877 -0.3487,-0.17522 -0.5287,-0.25587 -11.4085,-5.38529 -25.0272,-0.49839 -30.4163,10.91712 l -0.016,0.031 c -5.3695,11.41251 -0.4852,25.01057 10.9131,30.39105 5.684,2.68296 11.9214,2.82042 17.4109,0.86636 l 33.2838,41.65263 c -1.9781,2.24299 -3.6837,4.79576 -5.0245,7.63587 l -0.019,0.0396 c -2.9978,6.37125 -3.7359,13.22013 -2.5582,19.65492 l -50.5636,18.42431 c -2.6219,-4.02011 -6.3617,-7.38385 -11.0194,-9.58255 -13.4102,-6.32996 -29.411,-0.58471 -35.74534,12.83375 l -0.016,0.031 c -6.31178,13.41449 -0.57605,29.40455 12.82204,35.72884 13.4099,6.32985 29.4227,0.58096 35.757,-12.8376 2.0209,-4.2808 2.8135,-8.82368 2.5202,-13.23382 l 51.4544,-18.75218 c 3.1412,4.56492 7.4884,8.38404 12.8592,10.91938 2.9145,1.37555 5.9298,2.28289 8.9608,2.74586 l 19.6721,76.89935 c -1.4545,1.37095 -2.6862,3.02302 -3.5911,4.93985 l 0,0.0267 c -3.8623,8.20902 -0.3559,17.98808 7.8429,21.85811 8.2062,3.87366 18.0048,0.35825 21.8811,-7.85324 3.8764,-8.21127 0.3633,-18.00402 -7.8428,-21.87758 -1.4922,-0.70398 -3.0362,-1.16097 -4.5882,-1.39277 l -18.8518,-73.70891 c 5.5666,-1.73124 10.6568,-4.9482 14.6348,-9.42327 l 50.26,23.4121 c -0.1447,1.11432 -0.2142,2.25058 -0.1921,3.40812 0.2421,12.6197 10.6713,22.65163 23.2863,22.40324 12.615,-0.2486 22.6448,-10.67922 22.4028,-23.29891 l 0,-0.031 c -0.1773,-8.66815 -5.1545,-16.10719 -12.345,-19.83024 -3.2682,-1.6923 -6.9988,-2.61921 -10.9375,-2.54165 -6.2847,0.12398 -11.9309,2.77934 -15.9821,6.96943 l -49.5433,-23.08133 c 1.2935,-4.46341 1.5764,-9.04887 0.9601,-13.46798 l 29.8106,-8.54118 c 0.9749,1.04298 2.1578,1.92132 3.527,2.56765 5.8045,2.73976 12.7352,0.25363 15.4769,-5.5542 2.7419,-5.80804 0.2564,-12.73244 -5.548,-15.47221 -5.8044,-2.73987 -12.735,-0.25384 -15.4769,5.5542 l 0,0.0107 c -0.6826,1.45171 -1.0435,2.97328 -1.1042,4.48137 l -29.1242,8.34638 c -1.4829,-3.37753 -3.5315,-6.51726 -6.1074,-9.24419 l 44.1585,-50.03516 c 7.7335,2.47875 16.2927,-1.09722 19.8558,-8.64516 3.8764,-8.21105 0.3633,-18.00412 -7.8428,-21.87779 z"
       id="path3757-17-1-2-6-8-1-7-2-3-7"
       inkscape:export-filename="C:\Users\Melanie\Desktop\facebook-page-cover-image.png"
       inkscape:export-xdpi="32.468349"
       inkscape:export-ydpi="32.468349" />
    <path
       inkscape:connector-curvature="0"
       style="fill:#16769f;fill-opacity:0.94117647;stroke:none;display:inline"
       d="m 1180.9529,910.43403 c 3.0677,-8.4976 -1.333,-17.86793 -9.8361,-20.9381 l -0.027,0 c -4.6781,-1.68226 -9.615,-1.10394 -13.6228,1.17051 l -55.0999,-40.06074 c 2.6658,-8.59135 1.5534,-17.53027 -2.4583,-24.9414 l 38.5301,-37.26554 c 0.9856,0.53193 2.0203,0.9944 3.1058,1.38643 11.6367,4.20132 24.4593,-1.65944 28.9251,-13.11255 0.07,-0.18216 0.1409,-0.3624 0.204,-0.54821 4.2657,-11.81404 -1.8583,-24.85299 -13.6796,-29.1211 l -0.034,-0.0267 c -11.8165,-4.2494 -24.8351,1.87027 -29.0969,13.67387 -2.1246,5.88578 -1.6745,12.08123 0.7783,17.33839 l -38.1557,36.90557 c -2.4093,-1.7498 -5.0998,-3.20084 -8.0408,-4.26252 l -0.041,-0.0268 c -6.5969,-2.37258 -13.4545,-2.46026 -19.7218,-0.68788 l -23.0149,-48.38489 c 3.738,-2.97665 6.7208,-6.99991 8.4623,-11.82303 5.0131,-13.88666 -2.1855,-29.20612 -16.081,-34.22307 l -0.034,-0.0267 c -13.8894,-4.99483 -29.1989,2.19332 -34.20782,16.06783 -5.01332,13.8864 2.1901,29.21704 16.08532,34.23422 4.4332,1.60043 9.0106,1.95893 13.3542,1.25357 l 23.4236,49.23697 c -4.2295,3.54259 -7.6061,8.21075 -9.6144,13.77225 -1.0891,3.01794 -1.7048,6.09198 -1.879,9.1398 l -74.37057,26.72739 c -1.49209,-1.31695 -3.24892,-2.37864 -5.23432,-3.09517 l -0.0267,0 c -8.49955,-3.05632 -17.86256,1.33834 -20.92762,9.82864 -3.06797,8.49783 1.33761,17.87931 9.84103,20.94948 8.50294,3.0704 17.87907,-1.33227 20.9468,-9.83034 0.55768,-1.54505 0.86519,-3.11827 0.94923,-4.67812 L 1041.64,853.45114 c 2.2393,5.35505 5.9064,10.09776 10.7156,13.61995 l -18.4802,52.01686 c -1.118,-0.039 -2.2508,-7e-4 -3.3961,0.1288 -12.4856,1.4257 -21.4483,12.7062 -20.0165,25.1862 1.4326,12.4804 12.714,21.4409 25.1994,20.0151 l 0.029,0 c 8.5749,-0.9905 15.4805,-6.6234 18.4949,-14.1004 1.3698,-3.3983 1.938,-7.1831 1.4909,-11.0797 -0.7137,-6.2174 -3.8762,-11.5642 -8.4105,-15.1858 l 18.22,-51.27528 c 4.5455,0.86252 9.117,0.71193 13.4393,-0.31454 l 11.268,28.74442 c -0.9434,1.0629 -1.7017,2.3191 -2.2132,3.7371 -2.1698,6.0109 0.9458,12.6464 6.9602,14.8181 6.0141,2.1717 12.6438,-0.9429 14.814,-6.9535 2.1699,-6.0108 -0.946,-12.6464 -6.9602,-14.8181 l -0.027,0 c -1.503,-0.5402 -3.0451,-0.7546 -4.5455,-0.673 l -11.0108,-28.083 c 3.2084,-1.78695 6.1279,-4.11265 8.5884,-6.92219 l 53.7447,39.06459 c -1.7302,7.8987 2.6188,16.046 10.4353,18.8682 8.503,3.0702 17.879,-1.3325 20.9471,-9.8304 z"
       id="path3757-17-1-2-6-8-1-7-2-6-6-0-6-4-1"
       inkscape:export-filename="C:\Users\Melanie\Desktop\facebook-page-cover-image.png"
       inkscape:export-xdpi="32.468349"
       inkscape:export-ydpi="32.468349" />
    <path
       inkscape:connector-curvature="0"
       style="fill:#de2c14;fill-opacity:1;stroke:none;display:inline"
       d="m 911.06736,1017.2429 c 1.9416,-0.7516 2.9057,-2.9339 2.1536,-4.8769 l 0,-0.01 c -0.4148,-1.0678 -1.262,-1.8389 -2.2636,-2.1919 l -1.3661,-15.63997 c 1.8971,-0.8357 3.2834,-2.3809 3.9655,-4.1994 l 12.3072,1.0649 c 0.057,0.2518 0.1326,0.5017 0.2286,0.7498 1.0292,2.6589 3.9875,4.0024 6.6545,3.047 0.042,-0.015 0.084,-0.03 0.1262,-0.047 2.6994,-1.0449 4.0408,-4.0817 2.9953,-6.7828 l 0,-0.01 c -1.048,-2.6975 -4.0809,-4.036 -6.778,-2.9921 -1.3449,0.5207 -2.3542,1.5358 -2.8975,2.7574 l -12.188,-1.0542 c -0.06,-0.6835 -0.2146,-1.3708 -0.4747,-2.0428 l 0,-0.01 c -0.5851,-1.5059 -1.6069,-2.7117 -2.8628,-3.5336 l 4.9336,-11.3193 c 1.0829,0.1999 2.2335,0.1102 3.3356,-0.3164 3.1731,-1.2283 4.7485,-4.7968 3.5196,-7.9719 l 0,-0.01 c -1.2318,-3.1707 -4.7971,-4.746 -7.9673,-3.5188 -3.173,1.2282 -4.7496,4.7993 -3.5207,7.9744 0.392,1.0129 1.0219,1.8631 1.8014,2.5118 l -5.0199,11.5192 c -1.2557,-0.1997 -2.5781,-0.081 -3.8489,0.4109 -0.6896,0.2669 -1.31725,0.6247 -1.87358,1.0554 l -15.89465,-8.8911 c 0.003,-0.4586 -0.0777,-0.9246 -0.25328,-1.3782 l -0.004,0 c -0.75384,-1.9403 -2.93402,-2.9039 -4.87396,-2.1529 -1.94174,0.7515 -2.90695,2.9364 -2.15487,4.8793 0.75195,1.9431 2.93547,2.9077 4.87716,2.1561 0.35302,-0.1367 0.67314,-0.3211 0.95712,-0.5424 l 15.23457,8.5228 c -0.59253,1.1992 -0.86275,2.5541 -0.74793,3.9231 l -11.84038,4.6526 c -0.16236,-0.2002 -0.34023,-0.3915 -0.53619,-0.5709 -2.13615,-1.9555 -5.45316,-1.8082 -7.40688,0.3281 -1.95368,2.1364 -1.80587,5.4533 0.33025,7.40887 l 0.005,0 c 1.46901,1.3413 3.49279,1.6904 5.24886,1.0838 0.79818,-0.2756 1.54223,-0.7492 2.15224,-1.41627 0.97328,-1.0643 1.42479,-2.4229 1.36891,-3.759 l 11.67206,-4.5857 c 0.5374,0.9209 1.25497,1.693 2.08705,2.2895 l -3.29455,6.30637 c -0.32754,0 -0.66065,0.055 -0.98462,0.1802 -1.3734,0.5317 -2.05618,2.077 -1.52431,3.4513 0.5319,1.3743 2.07609,2.0562 3.44948,1.5245 1.37343,-0.5316 2.05619,-2.0769 1.52428,-3.4512 l -0.003,0 c -0.13337,-0.3431 -0.32926,-0.6437 -0.57036,-0.8922 l 3.21838,-6.16157 c 0.796,0.2877 1.6419,0.4436 2.5026,0.4467 l 1.3343,15.25367 c -1.6351,0.8936 -2.3942,2.882 -1.703,4.668 0.752,1.9429 2.9355,2.9076 4.8772,2.1561 z"
       id="path3757-17-1-2-6-8-1-7-2-6-5-7-2-1-1"
       inkscape:export-filename="C:\Users\Melanie\Desktop\facebook-page-cover-image.png"
       inkscape:export-xdpi="32.468349"
       inkscape:export-ydpi="32.468349" />
    <path
       inkscape:connector-curvature="0"
       style="fill:#16769f;fill-opacity:0.94117647;stroke:none;display:inline"
       d="m 1023.0204,1023.0245 c 0.6944,-1.9234 -0.3017,-4.0444 -2.2265,-4.7393 l -0.01,0 c -1.0588,-0.3808 -2.1763,-0.2499 -3.0835,0.2649 l -12.4719,-9.0678 c 0.6033,-1.9447 0.3515,-3.968 -0.5565,-5.6455 l 8.7213,-8.43512 c 0.2231,0.1204 0.4573,0.22508 0.703,0.31382 2.6341,0.95097 5.5364,-0.37562 6.5473,-2.96804 0.016,-0.0412 0.032,-0.082 0.046,-0.12409 0.9655,-2.67413 -0.4207,-5.62552 -3.0965,-6.59161 l -0.01,-0.006 c -2.6746,-0.96186 -5.6214,0.42334 -6.586,3.0951 -0.481,1.33226 -0.3791,2.73461 0.1761,3.92458 l -8.6366,8.35376 c -0.5453,-0.396 -1.1543,-0.7245 -1.82,-0.9648 l -0.01,-0.01 c -1.49327,-0.53703 -3.0455,-0.55688 -4.46411,-0.1557 l -5.20947,-10.95199 c 0.84614,-0.67377 1.52124,-1.58444 1.91546,-2.67616 1.13472,-3.14327 -0.49473,-6.61085 -3.63995,-7.74645 l -0.008,-0.006 c -3.14386,-1.13059 -6.60919,0.49646 -7.74298,3.63697 -1.13478,3.14321 0.49573,6.61333 3.64095,7.74897 1.00345,0.36226 2.03955,0.44341 3.02271,0.28375 l 5.30198,11.14491 c -0.95735,0.8018 -1.72167,1.8585 -2.17623,3.1173 -0.24654,0.6831 -0.38592,1.379 -0.42533,2.0688 l -16.83387,6.0498 c -0.33776,-0.2981 -0.73539,-0.5384 -1.18477,-0.7006 l -0.006,0 c -1.92392,-0.6918 -4.04321,0.303 -4.73702,2.2247 -0.69446,1.9235 0.30276,4.0471 2.22751,4.742 1.92469,0.695 4.04698,-0.3016 4.74138,-2.2251 0.12621,-0.3497 0.19584,-0.7058 0.21484,-1.0589 l 16.1356,-5.798 c 0.50684,1.2121 1.33691,2.2856 2.42553,3.0829 l -4.18308,11.7741 c -0.25307,-0.01 -0.50949,-2e-4 -0.76867,0.029 -2.82616,0.3228 -4.85489,2.8761 -4.53078,5.701 0.32424,2.8249 2.8778,4.8531 5.70391,4.5304 l 0.006,0 c 1.94093,-0.2242 3.50404,-1.4992 4.18632,-3.1916 0.31011,-0.7692 0.43868,-1.6259 0.33746,-2.508 -0.1615,-1.4073 -0.87736,-2.6175 -1.90369,-3.4372 l 4.12414,-11.6063 c 1.02887,0.1952 2.06367,0.1612 3.04201,-0.071 l 2.55045,6.5063 c -0.2135,0.2406 -0.3851,0.525 -0.5009,0.8459 -0.4912,1.3606 0.2141,2.8626 1.5754,3.3542 1.3614,0.4915 2.862,-0.2135 3.3532,-1.574 0.4912,-1.3606 -0.2141,-2.8625 -1.5754,-3.3541 l -0.01,4e-4 c -0.3403,-0.1223 -0.6893,-0.1708 -1.0289,-0.1524 l -2.4923,-6.3566 c 0.7262,-0.4045 1.387,-0.9309 1.944,-1.5668 l 12.1651,8.8423 c -0.3915,1.7879 0.5929,3.632 2.3621,4.2708 1.9247,0.695 4.047,-0.3016 4.7414,-2.2251 z"
       id="path3757-17-1-2-6-8-1-7-2-6-6-0-6-9-5"
       inkscape:export-filename="C:\Users\Melanie\Desktop\facebook-page-cover-image.png"
       inkscape:export-xdpi="32.468349"
       inkscape:export-ydpi="32.468349" />
  </g>
</svg>
