<?xml version="1.0" encoding="UTF-8" standalone="no"?>
<!-- Created with Inkscape (http://www.inkscape.org/) -->

<svg
   xmlns:dc="http://purl.org/dc/elements/1.1/"
   xmlns:cc="http://creativecommons.org/ns#"
   xmlns:rdf="http://www.w3.org/1999/02/22-rdf-syntax-ns#"
   xmlns:svg="http://www.w3.org/2000/svg"
   xmlns="http://www.w3.org/2000/svg"
   xmlns:sodipodi="http://sodipodi.sourceforge.net/DTD/sodipodi-0.dtd"
   xmlns:inkscape="http://www.inkscape.org/namespaces/inkscape"
   width="1848"
   height="682"
   id="svg4385"
   version="1.1"
   inkscape:version="0.48.4 r9939"
   sodipodi:docname="Neues Dokument 17">
  <defs
     id="defs4387" />
  <sodipodi:namedview
     id="base"
     pagecolor="#ffffff"
     bordercolor="#666666"
     borderopacity="1.0"
     inkscape:pageopacity="0.0"
     inkscape:pageshadow="2"
     inkscape:zoom="0.35"
     inkscape:cx="899.44733"
     inkscape:cy="408.62245"
     inkscape:document-units="px"
     inkscape:current-layer="layer1"
     showgrid="false"
     width="1848px"
     inkscape:window-width="1509"
     inkscape:window-height="770"
     inkscape:window-x="145"
     inkscape:window-y="75"
     inkscape:window-maximized="0" />
  <metadata
     id="metadata4390">
    <rdf:RDF>
      <cc:Work
         rdf:about="">
        <dc:format>image/svg+xml</dc:format>
        <dc:type
           rdf:resource="http://purl.org/dc/dcmitype/StillImage" />
        <dc:title></dc:title>
      </cc:Work>
    </rdf:RDF>
  </metadata>
  <g
     inkscape:label="Ebene 1"
     inkscape:groupmode="layer"
     id="layer1"
     transform="translate(0,-370.36218)">
    <g
       style="display:inline"
       id="g4201-5-4"
       transform="matrix(3.5943939,0,0,3.5943939,9614.1179,-4835.6105)"
       inkscape:export-filename="C:\Users\Melanie\Desktop\facebook-hero-banner.png"
       inkscape:export-xdpi="90"
       inkscape:export-ydpi="90">
      <text
         inkscape:export-ydpi="90.266006"
         inkscape:export-xdpi="90.266006"
         inkscape:export-filename="C:\Users\Melanie\Desktop\facebook-page-cover-image.png"
         transform="scale(0.999679,1.0003211)"
         sodipodi:linespacing="125%"
         id="text3235-9-3-1"
         y="1604.0544"
         x="-2355.9063"
         style="font-size:33.65577316px;font-style:normal;font-weight:normal;line-height:125%;letter-spacing:0px;word-spacing:0px;fill:#16769f;fill-opacity:0.94117647;stroke:none;display:inline;font-family:Sans"
         xml:space="preserve"><tspan
           style="font-style:normal;font-variant:normal;font-weight:normal;font-stretch:normal;fill:#16769f;fill-opacity:0.94117647;font-family:Ethnocentric Rg;-inkscape-font-specification:Ethnocentric Rg"
           y="1604.0544"
           x="-2355.9063"
           id="tspan3237-9-4-3"
           sodipodi:role="line">BETA</tspan></text>
      <text
         inkscape:export-ydpi="90.266006"
         inkscape:export-xdpi="90.266006"
         inkscape:export-filename="C:\Users\Melanie\Desktop\facebook-page-cover-image.png"
         transform="scale(0.999679,1.0003211)"
         sodipodi:linespacing="125%"
         id="text3185-8-1-9"
         y="1566.0526"
         x="-2575.8821"
         style="font-size:14.46914005px;font-style:normal;font-variant:normal;font-weight:normal;font-stretch:normal;line-height:125%;letter-spacing:0px;word-spacing:0px;fill:#de2c14;fill-opacity:1;stroke:none;display:inline;font-family:Ethnocentric Rg;-inkscape-font-specification:Ethnocentric Rg"
         xml:space="preserve"><tspan
           style="font-size:52.08890152px;font-style:normal;font-variant:normal;font-weight:normal;font-stretch:normal;fill:#de2c14;fill-opacity:1;font-family:Ethnocentric Rg;-inkscape-font-specification:Ethnocentric Rg"
           y="1566.0526"
           x="-2575.8821"
           id="tspan3187-18-0-5"
           sodipodi:role="line">MEETHUB</tspan></text>
      <path
         inkscape:export-ydpi="90.266006"
         inkscape:export-xdpi="90.266006"
         inkscape:export-filename="C:\Users\Melanie\Desktop\facebook-page-cover-image.png"
         id="path3757-17-1-2-6-8-1-7-2-4-8"
         d="m -2187.876,1461.8549 c -2.7758,-1.3102 -6.0864,-0.1224 -7.3975,2.6551 l 0,0.01 c -0.719,1.5282 -0.6818,3.2166 -0.041,4.6451 l -15.3173,17.3515 c -2.8204,-1.1771 -5.8794,-1.0876 -8.515,0.032 l -11.3684,-14.2277 c 0.2116,-0.3163 0.4013,-0.6514 0.5687,-1.006 1.7943,-3.8012 0.2233,-8.3262 -3.5073,-10.2041 -0.059,-0.03 -0.118,-0.059 -0.1789,-0.086 -3.859,-1.8217 -8.4657,-0.1686 -10.2886,3.6928 l -0.01,0.01 c -1.8164,3.8604 -0.1641,8.4601 3.6915,10.2801 1.9226,0.9076 4.0325,0.954 5.8894,0.2931 l 11.2586,14.0895 c -0.6691,0.7587 -1.246,1.6221 -1.6996,2.5828 l -0.01,0.013 c -1.014,2.1552 -1.2637,4.4719 -0.8653,6.6486 l -17.1038,6.2322 c -0.8868,-1.3599 -2.1518,-2.4978 -3.7274,-3.2415 -4.5362,-2.1411 -9.9486,-0.1978 -12.0912,4.3412 l -0.01,0.01 c -2.135,4.5376 -0.1948,9.9464 4.3373,12.0857 4.536,2.1411 9.9525,0.1965 12.0951,-4.3425 0.6836,-1.448 0.9517,-2.9847 0.8525,-4.4764 l 17.405,-6.3431 c 1.0625,1.5441 2.5331,2.8359 4.3498,3.6935 0.9858,0.4653 2.0058,0.7723 3.0311,0.9289 l 6.6543,26.012 c -0.492,0.4637 -0.9086,1.0225 -1.2147,1.6709 l 0,0.01 c -1.3065,2.7768 -0.1204,6.0847 2.6529,7.3938 2.7759,1.3102 6.0904,0.1211 7.4015,-2.6565 1.3113,-2.7775 0.1229,-6.0901 -2.6529,-7.4003 -0.5048,-0.2381 -1.027,-0.3927 -1.552,-0.4711 l -6.3768,-24.933 c 1.8829,-0.5856 3.6047,-1.6737 4.9504,-3.1874 l 17.001,7.9193 c -0.049,0.377 -0.072,0.7614 -0.065,1.1529 0.082,4.2688 3.6097,7.6621 7.8769,7.5781 4.2671,-0.084 7.6598,-3.6123 7.578,-7.881 l 0,-0.01 c -0.06,-2.9322 -1.7436,-5.4485 -4.1758,-6.7079 -1.1056,-0.5724 -2.3675,-0.886 -3.6998,-0.8597 -2.1259,0.042 -4.0358,0.9401 -5.4061,2.3575 l -16.7586,-7.8075 c 0.4375,-1.5098 0.5332,-3.0609 0.3247,-4.5557 l 10.0838,-2.8892 c 0.3298,0.3528 0.7299,0.6499 1.1931,0.8686 1.9634,0.9267 4.3078,0.086 5.2352,-1.8788 0.9275,-1.9646 0.087,-4.3069 -1.8767,-5.2337 -1.9634,-0.9267 -4.3078,-0.086 -5.2352,1.8788 l 0,0 c -0.2309,0.4911 -0.353,1.0058 -0.3735,1.5159 l -9.8516,2.8232 c -0.5016,-1.1424 -1.1946,-2.2045 -2.0659,-3.1269 l 14.9371,-16.925 c 2.6159,0.8385 5.5112,-0.3711 6.7164,-2.9243 1.3113,-2.7775 0.1229,-6.0901 -2.6528,-7.4004 z"
         style="fill:#de2c14;fill-opacity:1;stroke:none;display:inline"
         inkscape:connector-curvature="0" />
      <path
         inkscape:export-ydpi="90.266006"
         inkscape:export-xdpi="90.266006"
         inkscape:export-filename="C:\Users\Melanie\Desktop\facebook-page-cover-image.png"
         id="path3757-17-1-2-6-8-1-7-2-6-8-2"
         d="m -2390.6395,1627.51 c 2.0823,-0.806 3.1162,-3.1465 2.3097,-5.2302 l 0,-0.01 c -0.4449,-1.1452 -1.3535,-1.9722 -2.4276,-2.3508 l -1.4651,-16.7733 c 2.0345,-0.8963 3.5212,-2.5535 4.2528,-4.5037 l 13.1991,1.1419 c 0.061,0.2701 0.1421,0.5381 0.2451,0.8042 1.1037,2.8516 4.2765,4.2924 7.1368,3.2678 0.045,-0.016 0.09,-0.033 0.1353,-0.051 2.895,-1.1205 4.3336,-4.3774 3.2124,-7.2743 l 0,-0.01 c -1.1239,-2.8929 -4.3766,-4.3284 -7.2691,-3.2088 -1.4424,0.5584 -2.5248,1.6471 -3.1075,2.9571 l -13.0711,-1.1305 c -0.064,-0.7331 -0.2303,-1.4701 -0.5093,-2.1908 l 0,-0.01 c -0.6274,-1.6152 -1.7232,-2.9083 -3.0702,-3.7897 l 5.2911,-12.1397 c 1.1614,0.2144 2.3954,0.1182 3.5774,-0.3393 3.403,-1.3172 5.0926,-5.1444 3.7745,-8.5496 l 0,-0.01 c -1.3211,-3.4004 -5.1447,-5.0899 -8.5445,-3.7738 -3.403,1.3172 -5.0939,5.1471 -3.7759,8.5522 0.4204,1.0864 1.0959,1.9983 1.9319,2.6939 l -5.3837,12.3541 c -1.3466,-0.2142 -2.7648,-0.087 -4.1278,0.4406 -0.7396,0.2863 -1.4127,0.6699 -2.0093,1.1318 l -17.0466,-9.5353 c 0,-0.4918 -0.083,-0.9917 -0.2716,-1.4781 l 0,0 c -0.8085,-2.081 -3.1467,-3.1144 -5.2272,-2.3091 -2.0824,0.806 -3.1176,3.1493 -2.3109,5.233 0.8064,2.0839 3.1481,3.1185 5.2306,2.3124 0.3785,-0.1466 0.7219,-0.3444 1.0264,-0.5818 l 16.3386,9.1404 c -0.6355,1.2862 -0.9253,2.7393 -0.8022,4.2075 l -12.6984,4.9897 c -0.1741,-0.2148 -0.3649,-0.4199 -0.5751,-0.6122 -2.2909,-2.0972 -5.8483,-1.9393 -7.9435,0.3518 -2.0954,2.2913 -1.9368,5.8486 0.3541,7.9458 l 0.01,0.01 c 1.5754,1.4385 3.7459,1.8128 5.6292,1.1623 0.856,-0.2956 1.6539,-0.8035 2.3081,-1.5189 1.0439,-1.1414 1.5282,-2.5985 1.4682,-4.0314 l 12.5179,-4.9181 c 0.5763,0.9877 1.346,1.8158 2.2383,2.4555 l -3.5333,6.7634 c -0.3513,0 -0.7085,0.059 -1.056,0.1933 -1.4728,0.5702 -2.2052,2.2275 -1.6347,3.7013 0.5704,1.4739 2.2265,2.2052 3.6994,1.6351 1.473,-0.5702 2.2052,-2.2274 1.6348,-3.7014 l 0,0 c -0.1431,-0.3679 -0.3531,-0.6903 -0.6117,-0.9569 l 3.4516,-6.608 c 0.8536,0.3085 1.7609,0.4758 2.6839,0.4791 l 1.431,16.359 c -1.7536,0.9584 -2.5677,3.0908 -1.8263,5.0062 0.8064,2.0838 3.1481,3.1184 5.2306,2.3125 z"
         style="fill:#de2c14;fill-opacity:1;stroke:none;display:inline"
         inkscape:connector-curvature="0" />
      <path
         inkscape:export-ydpi="90.266006"
         inkscape:export-xdpi="90.266006"
         inkscape:export-filename="C:\Users\Melanie\Desktop\facebook-page-cover-image.png"
         id="path3757-17-1-2-6-8-1-7-2-6-6-5-7"
         d="m -2477.3484,1509.8739 c 0.4899,-1.3569 -0.2128,-2.8532 -1.5706,-3.3434 l 0,0 c -0.7469,-0.2686 -1.5352,-0.1763 -2.1752,0.1869 l -8.7981,-6.3967 c 0.4256,-1.3718 0.248,-2.7992 -0.3926,-3.9826 l 6.1523,-5.9504 c 0.1574,0.085 0.3226,0.1588 0.496,0.2214 1.8581,0.6709 3.9055,-0.265 4.6186,-2.0937 0.011,-0.029 0.023,-0.058 0.033,-0.088 0.6811,-1.8864 -0.2968,-3.9684 -2.1843,-4.6499 l -0.01,0 c -1.8869,-0.6786 -3.9656,0.2986 -4.6461,2.1833 -0.3392,0.9399 -0.2674,1.9291 0.1242,2.7686 l -6.0926,5.8929 c -0.3847,-0.2794 -0.8143,-0.511 -1.2839,-0.6806 l -0.01,0 c -1.0533,-0.3788 -2.1483,-0.3928 -3.149,-0.1098 l -3.675,-7.726 c 0.5969,-0.4753 1.0731,-1.1176 1.3512,-1.8878 0.8005,-2.2174 -0.3489,-4.6635 -2.5678,-5.4647 l -0.01,0 c -2.2177,-0.7975 -4.6624,0.3503 -5.4622,2.5657 -0.8004,2.2173 0.3498,4.6653 2.5686,5.4664 0.7078,0.2555 1.4387,0.3128 2.1322,0.2002 l 3.7402,7.8619 c -0.6753,0.5657 -1.2144,1.3111 -1.5351,2.1991 -0.1739,0.4819 -0.2722,0.9728 -0.3,1.4595 l -11.8753,4.2677 c -0.2382,-0.2103 -0.5187,-0.3799 -0.8357,-0.4943 l 0,0 c -1.3571,-0.488 -2.8522,0.2137 -3.3416,1.5695 -0.4899,1.3568 0.2135,2.8548 1.5714,3.345 1.3577,0.4904 2.8548,-0.2127 3.3447,-1.5696 0.089,-0.2467 0.1381,-0.4979 0.1515,-0.747 l 11.3826,-4.0901 c 0.3576,0.8551 0.9431,1.6123 1.7111,2.1748 l -2.9509,8.3058 c -0.1786,-0.01 -0.3594,-10e-5 -0.5423,0.021 -1.9936,0.2277 -3.4247,2.0289 -3.1961,4.0217 0.2287,1.9928 2.0301,3.4236 4.0238,3.1959 l 0,0 c 1.3691,-0.1582 2.4717,-1.0576 2.9531,-2.2516 0.2187,-0.5426 0.3094,-1.1469 0.238,-1.7691 -0.1139,-0.9928 -0.6189,-1.8465 -1.3429,-2.4247 l 2.9094,-8.1875 c 0.7257,0.1377 1.4557,0.1136 2.1458,-0.05 l 1.7992,4.5898 c -0.1506,0.1697 -0.2717,0.3703 -0.3534,0.5967 -0.3464,0.9598 0.1511,2.0193 1.1115,2.366 0.9603,0.3468 2.0189,-0.1505 2.3654,-1.1103 0.3464,-0.9597 -0.1511,-2.0193 -1.1114,-2.366 l 0,3e-4 c -0.24,-0.086 -0.4862,-0.1205 -0.7258,-0.1075 l -1.7582,-4.4841 c 0.5123,-0.2854 0.9786,-0.6567 1.3715,-1.1054 l 8.5816,6.2377 c -0.2762,1.2612 0.4183,2.5621 1.6663,3.0127 1.3577,0.4902 2.8548,-0.2128 3.3447,-1.5696 z"
         style="fill:#16769f;fill-opacity:0.94117647;stroke:none;display:inline"
         inkscape:connector-curvature="0" />
      <path
         inkscape:export-ydpi="90.266006"
         inkscape:export-xdpi="90.266006"
         inkscape:export-filename="C:\Users\Melanie\Desktop\facebook-page-cover-image.png"
         id="path3757-17-1-2-6-8-1-7-2-6-6-0-9-9"
         d="m -2428.8903,1616.2658 c 0.4272,-1.1835 -0.1856,-2.4884 -1.3699,-2.916 l 0,0 c -0.6515,-0.2342 -1.339,-0.1537 -1.8971,0.163 l -7.6735,-5.5789 c 0.3713,-1.1965 0.2163,-2.4414 -0.3423,-3.4735 l 5.3658,-5.1897 c 0.1374,0.074 0.2814,0.1384 0.4326,0.193 1.6206,0.5851 3.4062,-0.2311 4.0282,-1.826 0.01,-0.025 0.019,-0.051 0.028,-0.076 0.5942,-1.6453 -0.2588,-3.4611 -1.905,-4.0555 l 0,0 c -1.6456,-0.5918 -3.4587,0.2604 -4.0522,1.9042 -0.2958,0.8197 -0.2332,1.6825 0.1084,2.4147 l -5.3137,5.1396 c -0.3355,-0.2437 -0.7102,-0.4458 -1.1197,-0.5936 l -0.01,0 c -0.9187,-0.3305 -1.8738,-0.3427 -2.7466,-0.096 l -3.2051,-6.7383 c 0.5206,-0.4145 0.9359,-0.9748 1.1785,-1.6465 0.6981,-1.9339 -0.3044,-4.0673 -2.2396,-4.766 l 0,0 c -1.9342,-0.6956 -4.0662,0.3054 -4.7639,2.2376 -0.6981,1.9339 0.305,4.0689 2.2402,4.7676 0.6173,0.2229 1.2548,0.2728 1.8597,0.1746 l 3.2621,6.8569 c -0.589,0.4934 -1.0593,1.1435 -1.3389,1.918 -0.1517,0.4203 -0.2375,0.8484 -0.2617,1.2728 l -10.3572,3.7222 c -0.2078,-0.1834 -0.4525,-0.3313 -0.7289,-0.4311 l 0,0 c -1.1836,-0.4256 -2.4875,0.1864 -2.9144,1.3688 -0.4272,1.1835 0.1863,2.49 1.3705,2.9175 1.1841,0.4276 2.4899,-0.1855 2.9172,-1.369 0.078,-0.2151 0.1205,-0.4342 0.1322,-0.6514 l 9.9275,-3.5673 c 0.3118,0.7458 0.8225,1.4062 1.4922,1.8967 l -2.5737,7.2441 c -0.1557,-0.01 -0.3134,-10e-5 -0.4729,0.018 -1.7388,0.1986 -2.9869,1.7695 -2.7875,3.5076 0.1995,1.738 1.7705,2.9859 3.5093,2.7873 l 0,0 c 1.1942,-0.1379 2.1559,-0.9224 2.5756,-1.9636 0.1908,-0.4733 0.2699,-1.0003 0.2077,-1.5431 -0.099,-0.8658 -0.5398,-1.6104 -1.1713,-2.1148 l 2.5374,-7.1408 c 0.633,0.1201 1.2697,0.099 1.8716,-0.044 l 1.5692,4.0031 c -0.1314,0.148 -0.2369,0.3229 -0.3082,0.5204 -0.3022,0.8372 0.1317,1.7613 0.9693,2.0637 0.8375,0.3024 1.7609,-0.1313 2.0631,-0.9684 0.3022,-0.8371 -0.1317,-1.7612 -0.9694,-2.0637 l 0,3e-4 c -0.2093,-0.075 -0.4241,-0.1051 -0.633,-0.094 l -1.5334,-3.9109 c 0.4468,-0.2489 0.8534,-0.5727 1.1961,-0.964 l 7.4847,5.4403 c -0.241,1.1 0.3647,2.2346 1.4532,2.6277 1.1842,0.4275 2.49,-0.1856 2.9172,-1.369 z"
         style="fill:#16769f;fill-opacity:0.94117647;stroke:none;display:inline"
         inkscape:connector-curvature="0" />
      <path
         inkscape:export-ydpi="90.266006"
         inkscape:export-xdpi="90.266006"
         inkscape:export-filename="C:\Users\Melanie\Desktop\facebook-page-cover-image.png"
         id="path3757-17-1-2-6-8-1-7-2-6-6-0-3-2-6"
         d="m -2269.2244,1517.2117 c 0.4273,-1.1834 -0.1857,-2.4884 -1.3699,-2.9159 l 0,0 c -0.6514,-0.2343 -1.339,-0.1538 -1.8971,0.163 l -7.6734,-5.579 c 0.3712,-1.1964 0.2163,-2.4414 -0.3424,-3.4735 l 5.3658,-5.1897 c 0.1373,0.074 0.2814,0.1385 0.4325,0.1931 1.6207,0.5851 3.4064,-0.2311 4.0283,-1.8261 0.01,-0.025 0.02,-0.05 0.029,-0.076 0.594,-1.6454 -0.2588,-3.4612 -1.9051,-4.0556 l 0,0 c -1.6457,-0.5917 -3.4586,0.2605 -4.0521,1.9043 -0.2959,0.8196 -0.2332,1.6825 0.1083,2.4146 l -5.3137,5.1396 c -0.3355,-0.2437 -0.7102,-0.4457 -1.1197,-0.5936 l -0.01,0 c -0.9188,-0.3304 -1.8738,-0.3426 -2.7466,-0.096 l -3.2052,-6.7383 c 0.5206,-0.4145 0.9361,-0.9748 1.1786,-1.6465 0.6981,-1.934 -0.3044,-4.0674 -2.2396,-4.766 l 0,0 c -1.9342,-0.6956 -4.0663,0.3054 -4.7639,2.2376 -0.6981,1.9339 0.305,4.0689 2.2402,4.7675 0.6174,0.2229 1.2548,0.2729 1.8597,0.1746 l 3.2621,6.857 c -0.589,0.4934 -1.0593,1.1434 -1.339,1.918 -0.1517,0.4202 -0.2374,0.8483 -0.2617,1.2729 l -10.3571,3.722 c -0.2078,-0.1834 -0.4524,-0.3312 -0.7289,-0.431 l 0,0 c -1.1837,-0.4256 -2.4877,0.1864 -2.9145,1.3689 -0.4273,1.1834 0.1862,2.4898 1.3705,2.9174 1.1842,0.4276 2.4899,-0.1855 2.9171,-1.369 0.078,-0.2151 0.1205,-0.4342 0.1322,-0.6515 l 9.9275,-3.5672 c 0.3118,0.7457 0.8226,1.4062 1.4924,1.8967 l -2.5737,7.2441 c -0.1557,-0.01 -0.3135,-10e-5 -0.473,0.018 -1.7387,0.1986 -2.987,1.7695 -2.7876,3.5076 0.1996,1.738 1.7707,2.9858 3.5094,2.7873 l 0,0 c 1.1941,-0.138 2.1559,-0.9224 2.5757,-1.9636 0.1908,-0.4733 0.2699,-1.0004 0.2076,-1.5431 -0.099,-0.8659 -0.5398,-1.6105 -1.1712,-2.1148 l 2.5373,-7.1408 c 0.633,0.1202 1.2697,0.099 1.8717,-0.044 l 1.5692,4.003 c -0.1314,0.1481 -0.237,0.323 -0.3083,0.5205 -0.3021,0.8371 0.1318,1.7612 0.9693,2.0636 0.8376,0.3025 1.7608,-0.1313 2.063,-0.9683 0.3022,-0.8371 -0.1317,-1.7613 -0.9692,-2.0637 l 0,2e-4 c -0.2093,-0.075 -0.424,-0.1051 -0.633,-0.094 l -1.5334,-3.9109 c 0.4468,-0.2489 0.8534,-0.5728 1.1961,-0.964 l 7.4847,5.4402 c -0.2409,1.1001 0.3647,2.2347 1.4532,2.6277 1.1842,0.4276 2.4899,-0.1856 2.9173,-1.3689 z"
         style="fill:#16769f;fill-opacity:0.94117647;stroke:none;display:inline"
         inkscape:connector-curvature="0" />
    </g>
  </g>
</svg>
